<?xml version="1.0" encoding="UTF-8"?>
<svg xmlns="http://www.w3.org/2000/svg" xmlns:xlink="http://www.w3.org/1999/xlink" width="60pt" height="58pt" viewBox="0 0 60 58" version="1.1">
<g id="surface1">
<path style=" stroke:none;fill-rule:nonzero;fill:rgb(100%,92.156863%,23.137255%);fill-opacity:1;" d="M 34.835938 2.121094 C 34.804688 2.152344 34.78125 2.199219 34.78125 2.230469 C 34.78125 2.257812 34.707031 2.351562 34.617188 2.441406 C 34.527344 2.527344 34.453125 2.628906 34.453125 2.65625 C 34.453125 2.6875 34.378906 2.789062 34.289062 2.875 C 34.199219 2.964844 34.125 3.070312 34.125 3.109375 C 34.125 3.148438 34.074219 3.222656 34.007812 3.277344 C 33.941406 3.328125 33.890625 3.398438 33.890625 3.433594 C 33.890625 3.472656 33.816406 3.570312 33.726562 3.660156 C 33.636719 3.75 33.5625 3.84375 33.5625 3.871094 C 33.5625 3.898438 33.5 3.984375 33.421875 4.058594 C 33.347656 4.132812 33.28125 4.222656 33.28125 4.257812 C 33.28125 4.292969 33.230469 4.367188 33.164062 4.429688 C 33.097656 4.492188 33.046875 4.570312 33.046875 4.609375 C 33.046875 4.644531 32.972656 4.746094 32.882812 4.832031 C 32.792969 4.921875 32.71875 5.015625 32.71875 5.042969 C 32.71875 5.074219 32.652344 5.15625 32.574219 5.238281 C 32.492188 5.3125 32.398438 5.445312 32.359375 5.523438 C 32.320312 5.609375 32.269531 5.679688 32.246094 5.679688 C 32.222656 5.679688 32.203125 5.710938 32.203125 5.753906 C 32.203125 5.796875 32.128906 5.898438 32.039062 5.988281 C 31.949219 6.070312 31.875 6.171875 31.875 6.203125 C 31.875 6.242188 31.800781 6.339844 31.710938 6.429688 C 31.621094 6.519531 31.546875 6.613281 31.546875 6.640625 C 31.546875 6.667969 31.472656 6.761719 31.382812 6.851562 C 31.292969 6.941406 31.21875 7.042969 31.21875 7.085938 C 31.21875 7.125 31.175781 7.1875 31.125 7.226562 C 31.074219 7.265625 31.03125 7.328125 31.03125 7.371094 C 31.03125 7.414062 30.957031 7.511719 30.867188 7.585938 C 30.777344 7.667969 30.703125 7.761719 30.703125 7.800781 C 30.703125 7.835938 30.628906 7.933594 30.539062 8.023438 C 30.449219 8.113281 30.375 8.210938 30.375 8.25 C 30.375 8.285156 30.324219 8.359375 30.257812 8.410156 C 30.191406 8.460938 30.140625 8.53125 30.140625 8.574219 C 30.140625 8.609375 30.078125 8.703125 30 8.773438 C 29.925781 8.84375 29.859375 8.933594 29.859375 8.972656 C 29.859375 9.007812 29.785156 9.109375 29.695312 9.199219 C 29.605469 9.285156 29.53125 9.378906 29.53125 9.410156 C 29.53125 9.4375 29.480469 9.511719 29.414062 9.574219 C 29.347656 9.632812 29.296875 9.714844 29.296875 9.75 C 29.296875 9.789062 29.222656 9.882812 29.132812 9.960938 C 29.042969 10.039062 28.96875 10.132812 28.96875 10.164062 C 28.96875 10.203125 28.894531 10.308594 28.804688 10.402344 C 28.714844 10.496094 28.65625 10.585938 28.664062 10.601562 C 28.679688 10.609375 28.65625 10.660156 28.609375 10.707031 C 28.53125 10.789062 28.578125 10.792969 29.992188 10.792969 C 30.933594 10.792969 31.453125 10.773438 31.453125 10.746094 C 31.453125 10.71875 32 10.699219 33 10.699219 C 34 10.699219 34.546875 10.71875 34.546875 10.746094 C 34.546875 10.773438 34.679688 10.792969 34.847656 10.792969 C 35.054688 10.792969 35.160156 10.816406 35.203125 10.863281 C 35.242188 10.910156 35.34375 10.933594 35.488281 10.933594 C 35.609375 10.933594 35.726562 10.953125 35.742188 10.980469 C 35.757812 11.003906 35.875 11.027344 36 11.027344 C 36.125 11.027344 36.242188 11.046875 36.257812 11.074219 C 36.273438 11.097656 36.421875 11.121094 36.589844 11.121094 C 36.757812 11.121094 36.890625 11.140625 36.890625 11.167969 C 36.890625 11.191406 36.992188 11.214844 37.121094 11.214844 C 37.265625 11.214844 37.378906 11.242188 37.425781 11.285156 C 37.460938 11.324219 37.546875 11.355469 37.613281 11.355469 C 37.710938 11.355469 37.734375 11.332031 37.734375 11.238281 C 37.734375 11.171875 37.714844 11.121094 37.6875 11.121094 C 37.664062 11.121094 37.640625 11.058594 37.640625 10.984375 C 37.640625 10.90625 37.621094 10.832031 37.59375 10.816406 C 37.570312 10.800781 37.546875 10.703125 37.546875 10.605469 C 37.546875 10.507812 37.527344 10.40625 37.5 10.394531 C 37.476562 10.378906 37.453125 10.300781 37.453125 10.226562 C 37.453125 10.144531 37.425781 10.074219 37.382812 10.0625 C 37.34375 10.042969 37.3125 9.972656 37.3125 9.902344 C 37.3125 9.828125 37.292969 9.75 37.265625 9.738281 C 37.242188 9.722656 37.21875 9.625 37.21875 9.527344 C 37.21875 9.425781 37.199219 9.328125 37.171875 9.316406 C 37.148438 9.300781 37.125 9.234375 37.125 9.167969 C 37.125 9.105469 37.09375 9.019531 37.054688 8.980469 C 37.015625 8.9375 36.984375 8.859375 36.984375 8.796875 C 36.984375 8.738281 36.964844 8.671875 36.9375 8.65625 C 36.914062 8.644531 36.890625 8.546875 36.890625 8.445312 C 36.890625 8.347656 36.871094 8.25 36.84375 8.234375 C 36.820312 8.222656 36.796875 8.144531 36.796875 8.066406 C 36.796875 7.992188 36.777344 7.929688 36.75 7.929688 C 36.726562 7.929688 36.703125 7.871094 36.703125 7.792969 C 36.703125 7.71875 36.671875 7.636719 36.632812 7.601562 C 36.589844 7.570312 36.5625 7.464844 36.5625 7.363281 C 36.5625 7.265625 36.542969 7.171875 36.515625 7.15625 C 36.492188 7.140625 36.46875 7.066406 36.46875 6.988281 C 36.46875 6.914062 36.449219 6.851562 36.421875 6.851562 C 36.398438 6.851562 36.375 6.789062 36.375 6.714844 C 36.375 6.640625 36.34375 6.554688 36.304688 6.523438 C 36.265625 6.488281 36.234375 6.40625 36.234375 6.332031 C 36.234375 6.253906 36.214844 6.195312 36.1875 6.195312 C 36.164062 6.195312 36.140625 6.101562 36.140625 5.984375 C 36.140625 5.867188 36.121094 5.773438 36.09375 5.773438 C 36.070312 5.773438 36.046875 5.710938 36.046875 5.636719 C 36.046875 5.554688 36.027344 5.480469 36 5.46875 C 35.976562 5.453125 35.953125 5.371094 35.953125 5.296875 C 35.953125 5.21875 35.925781 5.148438 35.882812 5.132812 C 35.835938 5.113281 35.8125 5.039062 35.8125 4.898438 C 35.8125 4.785156 35.792969 4.691406 35.765625 4.691406 C 35.742188 4.691406 35.71875 4.632812 35.71875 4.554688 C 35.71875 4.476562 35.699219 4.402344 35.671875 4.386719 C 35.648438 4.375 35.625 4.308594 35.625 4.242188 C 35.625 4.175781 35.59375 4.085938 35.550781 4.050781 C 35.503906 4.003906 35.484375 3.921875 35.492188 3.839844 C 35.507812 3.761719 35.488281 3.683594 35.453125 3.65625 C 35.417969 3.628906 35.390625 3.542969 35.390625 3.46875 C 35.390625 3.398438 35.371094 3.324219 35.34375 3.308594 C 35.320312 3.292969 35.296875 3.21875 35.296875 3.140625 C 35.296875 3.0625 35.277344 3.003906 35.25 3.003906 C 35.226562 3.003906 35.203125 2.921875 35.203125 2.820312 C 35.203125 2.71875 35.175781 2.613281 35.132812 2.582031 C 35.09375 2.546875 35.0625 2.476562 35.0625 2.421875 C 35.0625 2.3125 34.964844 2.066406 34.921875 2.066406 C 34.902344 2.066406 34.871094 2.089844 34.835938 2.121094 Z M 34.835938 2.121094 "/>
<path style=" stroke:none;fill-rule:nonzero;fill:rgb(100%,92.156863%,23.137255%);fill-opacity:1;" d="M 11.859375 8.324219 C 11.859375 8.359375 11.890625 8.414062 11.929688 8.445312 C 11.96875 8.480469 12 8.546875 12 8.59375 C 12 8.644531 12.023438 8.679688 12.046875 8.679688 C 12.074219 8.679688 12.09375 8.742188 12.09375 8.816406 C 12.09375 8.898438 12.117188 8.972656 12.140625 8.984375 C 12.167969 9 12.1875 9.0625 12.1875 9.121094 C 12.1875 9.238281 12.304688 9.507812 12.378906 9.550781 C 12.402344 9.566406 12.421875 9.636719 12.421875 9.71875 C 12.421875 9.792969 12.445312 9.855469 12.46875 9.855469 C 12.496094 9.855469 12.515625 9.914062 12.515625 9.992188 C 12.515625 10.070312 12.539062 10.144531 12.5625 10.160156 C 12.589844 10.171875 12.609375 10.226562 12.609375 10.277344 C 12.609375 10.324219 12.640625 10.371094 12.679688 10.390625 C 12.722656 10.402344 12.75 10.472656 12.75 10.554688 C 12.75 10.628906 12.773438 10.707031 12.796875 10.722656 C 12.824219 10.738281 12.84375 10.8125 12.84375 10.890625 C 12.84375 10.964844 12.867188 11.027344 12.890625 11.027344 C 12.917969 11.027344 12.9375 11.070312 12.9375 11.117188 C 12.9375 11.167969 12.960938 11.222656 12.984375 11.238281 C 13.011719 11.253906 13.03125 11.320312 13.03125 11.375 C 13.03125 11.4375 13.0625 11.511719 13.101562 11.542969 C 13.140625 11.578125 13.171875 11.652344 13.171875 11.710938 C 13.171875 11.773438 13.214844 11.894531 13.265625 11.988281 C 13.316406 12.082031 13.359375 12.207031 13.359375 12.265625 C 13.359375 12.328125 13.386719 12.402344 13.425781 12.429688 C 13.460938 12.464844 13.484375 12.527344 13.476562 12.574219 C 13.46875 12.621094 13.492188 12.6875 13.527344 12.722656 C 13.566406 12.75 13.59375 12.816406 13.59375 12.863281 C 13.59375 12.914062 13.617188 12.953125 13.640625 12.953125 C 13.667969 12.953125 13.6875 13.011719 13.6875 13.085938 C 13.6875 13.167969 13.710938 13.242188 13.734375 13.257812 C 13.761719 13.269531 13.78125 13.320312 13.78125 13.375 C 13.78125 13.421875 13.8125 13.46875 13.851562 13.488281 C 13.894531 13.5 13.921875 13.570312 13.921875 13.652344 C 13.921875 13.726562 13.945312 13.804688 13.96875 13.820312 C 13.996094 13.832031 14.015625 13.910156 14.015625 13.988281 C 14.015625 14.0625 14.039062 14.125 14.0625 14.125 C 14.089844 14.125 14.109375 14.167969 14.109375 14.214844 C 14.109375 14.265625 14.132812 14.320312 14.15625 14.335938 C 14.183594 14.351562 14.203125 14.414062 14.203125 14.472656 C 14.203125 14.53125 14.234375 14.609375 14.273438 14.640625 C 14.3125 14.671875 14.34375 14.75 14.34375 14.808594 C 14.34375 14.871094 14.386719 14.992188 14.4375 15.085938 C 14.488281 15.179688 14.53125 15.300781 14.53125 15.363281 C 14.53125 15.425781 14.5625 15.5 14.601562 15.53125 C 14.640625 15.566406 14.671875 15.640625 14.671875 15.703125 C 14.671875 15.757812 14.695312 15.824219 14.71875 15.835938 C 14.746094 15.851562 14.765625 15.90625 14.765625 15.960938 C 14.765625 16.007812 14.789062 16.046875 14.8125 16.046875 C 14.839844 16.046875 14.859375 16.109375 14.859375 16.183594 C 14.859375 16.265625 14.882812 16.339844 14.90625 16.355469 C 14.933594 16.367188 14.953125 16.449219 14.953125 16.523438 C 14.953125 16.601562 14.980469 16.671875 15.023438 16.6875 C 15.0625 16.707031 15.09375 16.753906 15.09375 16.800781 C 15.09375 16.851562 15.117188 16.902344 15.140625 16.917969 C 15.167969 16.929688 15.1875 17.003906 15.1875 17.085938 C 15.1875 17.160156 15.210938 17.222656 15.234375 17.222656 C 15.261719 17.222656 15.28125 17.28125 15.28125 17.359375 C 15.28125 17.4375 15.300781 17.507812 15.324219 17.527344 C 15.382812 17.558594 15.515625 17.828125 15.515625 17.910156 C 15.515625 17.945312 15.53125 17.972656 15.542969 17.972656 C 15.5625 17.972656 15.78125 17.761719 16.035156 17.503906 C 16.292969 17.246094 16.527344 17.035156 16.5625 17.035156 C 16.59375 17.035156 16.859375 16.789062 17.15625 16.496094 C 17.453125 16.199219 17.714844 15.953125 17.742188 15.953125 C 17.769531 15.953125 17.863281 15.878906 17.953125 15.789062 C 18.042969 15.703125 18.140625 15.625 18.179688 15.625 C 18.210938 15.625 18.308594 15.550781 18.394531 15.460938 C 18.484375 15.371094 18.582031 15.296875 18.617188 15.296875 C 18.65625 15.296875 18.753906 15.222656 18.84375 15.132812 C 18.933594 15.042969 19.027344 14.96875 19.054688 14.96875 C 19.082031 14.96875 19.175781 14.894531 19.265625 14.804688 C 19.355469 14.714844 19.449219 14.640625 19.476562 14.640625 C 19.507812 14.640625 19.597656 14.574219 19.679688 14.5 C 19.761719 14.421875 19.855469 14.359375 19.890625 14.359375 C 19.917969 14.359375 20.011719 14.285156 20.085938 14.195312 C 20.164062 14.105469 20.257812 14.03125 20.300781 14.03125 C 20.339844 14.03125 20.421875 13.980469 20.484375 13.914062 C 20.546875 13.847656 20.621094 13.796875 20.648438 13.796875 C 20.679688 13.796875 20.742188 13.753906 20.789062 13.703125 C 20.835938 13.652344 20.902344 13.609375 20.9375 13.609375 C 20.976562 13.609375 21.050781 13.558594 21.113281 13.492188 C 21.171875 13.425781 21.253906 13.375 21.289062 13.375 C 21.328125 13.375 21.40625 13.320312 21.46875 13.257812 C 21.523438 13.195312 21.589844 13.152344 21.609375 13.164062 C 21.628906 13.171875 21.695312 13.128906 21.75 13.070312 C 21.8125 13.003906 21.890625 12.953125 21.921875 12.953125 C 21.988281 12.953125 22.125 12.84375 22.125 12.792969 C 22.125 12.757812 21.839844 12.621094 21.765625 12.621094 C 21.730469 12.621094 21.703125 12.597656 21.703125 12.574219 C 21.703125 12.546875 21.660156 12.527344 21.609375 12.527344 C 21.558594 12.527344 21.515625 12.503906 21.515625 12.480469 C 21.515625 12.453125 21.476562 12.433594 21.425781 12.433594 C 21.378906 12.433594 21.3125 12.402344 21.28125 12.363281 C 21.25 12.328125 21.164062 12.292969 21.089844 12.292969 C 21.015625 12.292969 20.953125 12.269531 20.953125 12.246094 C 20.953125 12.21875 20.914062 12.199219 20.875 12.195312 C 20.828125 12.195312 20.726562 12.152344 20.648438 12.105469 C 20.394531 11.945312 20.234375 11.871094 20.15625 11.871094 C 20.066406 11.871094 19.609375 11.648438 19.566406 11.585938 C 19.550781 11.5625 19.480469 11.542969 19.40625 11.542969 C 19.332031 11.542969 19.257812 11.519531 19.242188 11.496094 C 19.226562 11.46875 19.171875 11.449219 19.121094 11.449219 C 19.074219 11.449219 19.03125 11.425781 19.03125 11.402344 C 19.03125 11.375 18.988281 11.355469 18.9375 11.355469 C 18.886719 11.355469 18.84375 11.335938 18.84375 11.320312 C 18.84375 11.265625 18.507812 11.121094 18.382812 11.121094 C 18.328125 11.121094 18.28125 11.097656 18.28125 11.074219 C 18.28125 11.046875 18.242188 11.027344 18.203125 11.023438 C 18.15625 11.023438 18.054688 10.980469 17.976562 10.933594 C 17.71875 10.773438 17.5625 10.699219 17.484375 10.699219 C 17.390625 10.699219 17.125 10.574219 17.085938 10.507812 C 17.066406 10.484375 17.039062 10.472656 17.015625 10.488281 C 16.996094 10.5 16.953125 10.476562 16.921875 10.441406 C 16.890625 10.402344 16.824219 10.371094 16.777344 10.371094 C 16.726562 10.371094 16.6875 10.347656 16.6875 10.324219 C 16.6875 10.296875 16.625 10.277344 16.550781 10.277344 C 16.472656 10.277344 16.398438 10.253906 16.382812 10.230469 C 16.367188 10.203125 16.316406 10.183594 16.265625 10.183594 C 16.21875 10.183594 16.171875 10.148438 16.152344 10.113281 C 16.140625 10.074219 16.082031 10.042969 16.03125 10.042969 C 15.980469 10.042969 15.9375 10.019531 15.9375 9.996094 C 15.9375 9.96875 15.894531 9.949219 15.847656 9.949219 C 15.796875 9.949219 15.742188 9.925781 15.726562 9.902344 C 15.710938 9.875 15.640625 9.855469 15.570312 9.851562 C 15.5 9.851562 15.382812 9.808594 15.304688 9.761719 C 15.0625 9.609375 14.890625 9.527344 14.828125 9.527344 C 14.792969 9.527344 14.765625 9.503906 14.765625 9.480469 C 14.765625 9.449219 14.703125 9.433594 14.628906 9.433594 C 14.550781 9.433594 14.480469 9.414062 14.460938 9.390625 C 14.429688 9.328125 14.160156 9.199219 14.078125 9.199219 C 14.042969 9.199219 14.015625 9.175781 14.015625 9.152344 C 14.015625 9.121094 13.964844 9.105469 13.90625 9.105469 C 13.785156 9.105469 13.519531 8.984375 13.476562 8.910156 C 13.457031 8.886719 13.40625 8.867188 13.355469 8.867188 C 13.308594 8.867188 13.265625 8.84375 13.265625 8.820312 C 13.265625 8.792969 13.222656 8.773438 13.175781 8.773438 C 13.125 8.773438 13.070312 8.75 13.054688 8.726562 C 13.039062 8.699219 12.964844 8.679688 12.890625 8.679688 C 12.816406 8.679688 12.746094 8.664062 12.730469 8.640625 C 12.695312 8.582031 12.234375 8.351562 12.15625 8.351562 C 12.121094 8.351562 12.09375 8.328125 12.09375 8.304688 C 12.09375 8.277344 12.042969 8.257812 11.976562 8.257812 C 11.90625 8.257812 11.859375 8.285156 11.859375 8.324219 Z M 11.859375 8.324219 "/>
<path style=" stroke:none;fill-rule:nonzero;fill:rgb(100%,92.156863%,23.137255%);fill-opacity:1;" d="M 53.039062 10.980469 C 53.023438 11.003906 52.949219 11.027344 52.871094 11.027344 C 52.796875 11.027344 52.734375 11.046875 52.734375 11.074219 C 52.734375 11.097656 52.671875 11.121094 52.597656 11.121094 C 52.519531 11.121094 52.445312 11.140625 52.429688 11.167969 C 52.414062 11.191406 52.335938 11.214844 52.261719 11.214844 C 52.179688 11.214844 52.109375 11.242188 52.097656 11.285156 C 52.078125 11.324219 52.007812 11.355469 51.9375 11.355469 C 51.863281 11.355469 51.789062 11.375 51.773438 11.402344 C 51.757812 11.425781 51.703125 11.449219 51.652344 11.449219 C 51.605469 11.449219 51.5625 11.46875 51.5625 11.496094 C 51.5625 11.519531 51.5 11.542969 51.425781 11.542969 C 51.351562 11.542969 51.265625 11.578125 51.234375 11.613281 C 51.203125 11.652344 51.117188 11.683594 51.042969 11.683594 C 50.96875 11.683594 50.90625 11.703125 50.90625 11.730469 C 50.90625 11.753906 50.832031 11.777344 50.742188 11.777344 C 50.652344 11.777344 50.578125 11.796875 50.578125 11.824219 C 50.578125 11.847656 50.515625 11.871094 50.441406 11.871094 C 50.363281 11.871094 50.289062 11.890625 50.273438 11.917969 C 50.257812 11.941406 50.195312 11.964844 50.136719 11.964844 C 50.078125 11.964844 50 12 49.96875 12.035156 C 49.9375 12.074219 49.851562 12.105469 49.777344 12.105469 C 49.707031 12.105469 49.632812 12.125 49.617188 12.152344 C 49.601562 12.175781 49.527344 12.199219 49.449219 12.199219 C 49.375 12.199219 49.3125 12.21875 49.3125 12.246094 C 49.3125 12.269531 49.25 12.292969 49.175781 12.292969 C 49.101562 12.292969 49.015625 12.328125 48.984375 12.363281 C 48.953125 12.402344 48.867188 12.433594 48.792969 12.433594 C 48.71875 12.433594 48.65625 12.453125 48.65625 12.480469 C 48.65625 12.503906 48.613281 12.527344 48.566406 12.527344 C 48.515625 12.527344 48.460938 12.546875 48.445312 12.574219 C 48.429688 12.597656 48.355469 12.621094 48.277344 12.621094 C 48.203125 12.621094 48.140625 12.640625 48.140625 12.667969 C 48.140625 12.695312 48.078125 12.71875 48.003906 12.71875 C 47.929688 12.71875 47.84375 12.75 47.8125 12.789062 C 47.78125 12.824219 47.695312 12.859375 47.621094 12.859375 C 47.546875 12.859375 47.484375 12.875 47.484375 12.90625 C 47.484375 12.929688 47.421875 12.953125 47.347656 12.953125 C 47.269531 12.953125 47.195312 12.96875 47.179688 13 C 47.164062 13.023438 47.089844 13.046875 47.019531 13.046875 C 46.945312 13.046875 46.859375 13.078125 46.824219 13.121094 C 46.789062 13.15625 46.726562 13.179688 46.683594 13.171875 C 46.636719 13.15625 46.574219 13.175781 46.542969 13.214844 C 46.515625 13.25 46.429688 13.28125 46.355469 13.28125 C 46.285156 13.28125 46.210938 13.296875 46.195312 13.328125 C 46.179688 13.351562 46.105469 13.375 46.027344 13.375 C 45.953125 13.375 45.890625 13.390625 45.890625 13.421875 C 45.890625 13.445312 45.828125 13.46875 45.753906 13.46875 C 45.675781 13.46875 45.605469 13.488281 45.585938 13.511719 C 45.542969 13.585938 45.277344 13.703125 45.160156 13.703125 C 45.097656 13.703125 45.039062 13.722656 45.023438 13.75 C 45.007812 13.773438 44.933594 13.796875 44.855469 13.796875 C 44.78125 13.796875 44.71875 13.816406 44.71875 13.84375 C 44.71875 13.867188 44.65625 13.890625 44.582031 13.890625 C 44.507812 13.890625 44.421875 13.921875 44.390625 13.960938 C 44.359375 13.996094 44.273438 14.03125 44.199219 14.03125 C 44.125 14.03125 44.0625 14.050781 44.0625 14.078125 C 44.0625 14.101562 44.019531 14.125 43.96875 14.125 C 43.917969 14.125 43.875 14.144531 43.875 14.171875 C 43.875 14.195312 43.902344 14.21875 43.941406 14.21875 C 43.972656 14.21875 44.03125 14.25 44.0625 14.289062 C 44.09375 14.328125 44.160156 14.359375 44.207031 14.359375 C 44.257812 14.359375 44.296875 14.378906 44.296875 14.40625 C 44.296875 14.429688 44.339844 14.453125 44.390625 14.453125 C 44.441406 14.453125 44.484375 14.472656 44.484375 14.5 C 44.484375 14.523438 44.546875 14.546875 44.621094 14.546875 C 44.699219 14.546875 44.773438 14.566406 44.789062 14.59375 C 44.804688 14.617188 44.859375 14.640625 44.910156 14.640625 C 44.960938 14.640625 45.015625 14.671875 45.027344 14.710938 C 45.046875 14.75 45.117188 14.78125 45.1875 14.78125 C 45.261719 14.78125 45.335938 14.800781 45.351562 14.828125 C 45.367188 14.851562 45.421875 14.875 45.472656 14.875 C 45.519531 14.875 45.5625 14.894531 45.5625 14.921875 C 45.5625 14.945312 45.601562 14.96875 45.652344 14.96875 C 45.699219 14.96875 45.765625 15.003906 45.796875 15.039062 C 45.828125 15.078125 45.90625 15.109375 45.964844 15.109375 C 46.023438 15.109375 46.085938 15.128906 46.101562 15.15625 C 46.117188 15.179688 46.171875 15.203125 46.222656 15.203125 C 46.269531 15.203125 46.3125 15.222656 46.3125 15.25 C 46.3125 15.273438 46.339844 15.296875 46.375 15.296875 C 46.480469 15.296875 46.734375 15.441406 46.734375 15.503906 C 46.734375 15.535156 46.808594 15.632812 46.898438 15.71875 C 46.988281 15.808594 47.0625 15.90625 47.0625 15.945312 C 47.0625 15.976562 47.136719 16.078125 47.226562 16.160156 C 47.316406 16.25 47.390625 16.347656 47.390625 16.386719 C 47.390625 16.425781 47.464844 16.523438 47.554688 16.613281 C 47.644531 16.699219 47.71875 16.792969 47.71875 16.824219 C 47.71875 16.851562 47.785156 16.933594 47.859375 17.011719 C 47.9375 17.085938 48 17.171875 48 17.199219 C 48 17.226562 48.074219 17.328125 48.164062 17.421875 C 48.253906 17.515625 48.328125 17.625 48.328125 17.664062 C 48.328125 17.695312 48.402344 17.789062 48.492188 17.863281 C 48.582031 17.945312 48.65625 18.039062 48.65625 18.074219 C 48.65625 18.113281 48.730469 18.210938 48.820312 18.300781 C 48.910156 18.390625 48.984375 18.484375 48.984375 18.511719 C 48.984375 18.546875 49.023438 18.601562 49.070312 18.648438 C 49.152344 18.71875 49.164062 18.71875 49.234375 18.640625 C 49.28125 18.59375 49.3125 18.515625 49.3125 18.472656 C 49.3125 18.433594 49.335938 18.394531 49.359375 18.394531 C 49.386719 18.394531 49.40625 18.351562 49.40625 18.300781 C 49.40625 18.25 49.429688 18.207031 49.453125 18.207031 C 49.480469 18.207031 49.5 18.164062 49.5 18.117188 C 49.5 18.066406 49.519531 18.015625 49.542969 17.996094 C 49.601562 17.964844 49.734375 17.695312 49.734375 17.609375 C 49.734375 17.578125 49.757812 17.550781 49.78125 17.550781 C 49.808594 17.550781 49.828125 17.511719 49.828125 17.460938 C 49.828125 17.414062 49.859375 17.347656 49.898438 17.316406 C 49.9375 17.28125 49.960938 17.242188 49.945312 17.222656 C 49.929688 17.203125 49.953125 17.160156 49.992188 17.128906 C 50.03125 17.09375 50.0625 17.042969 50.0625 17.011719 C 50.0625 16.980469 50.105469 16.917969 50.15625 16.871094 C 50.207031 16.824219 50.25 16.742188 50.25 16.695312 C 50.25 16.648438 50.28125 16.597656 50.320312 16.582031 C 50.359375 16.566406 50.390625 16.527344 50.390625 16.488281 C 50.390625 16.457031 50.433594 16.355469 50.484375 16.257812 C 50.535156 16.164062 50.578125 16.0625 50.578125 16.023438 C 50.578125 15.988281 50.597656 15.953125 50.621094 15.953125 C 50.644531 15.953125 50.675781 15.902344 50.691406 15.835938 C 50.710938 15.773438 50.742188 15.71875 50.765625 15.71875 C 50.792969 15.71875 50.8125 15.6875 50.8125 15.648438 C 50.8125 15.613281 50.855469 15.507812 50.90625 15.414062 C 50.957031 15.320312 51 15.21875 51 15.183594 C 51 15.148438 51.03125 15.109375 51.070312 15.089844 C 51.109375 15.078125 51.140625 15.027344 51.140625 14.980469 C 51.140625 14.925781 51.171875 14.859375 51.210938 14.828125 C 51.253906 14.796875 51.328125 14.671875 51.375 14.566406 C 51.425781 14.453125 51.488281 14.351562 51.515625 14.335938 C 51.539062 14.320312 51.5625 14.265625 51.5625 14.214844 C 51.5625 14.167969 51.585938 14.125 51.609375 14.125 C 51.636719 14.125 51.65625 14.097656 51.65625 14.0625 C 51.65625 13.980469 51.789062 13.710938 51.847656 13.679688 C 51.871094 13.660156 51.890625 13.609375 51.890625 13.558594 C 51.890625 13.511719 51.914062 13.46875 51.9375 13.46875 C 51.964844 13.46875 51.984375 13.425781 51.984375 13.375 C 51.984375 13.320312 52.007812 13.28125 52.03125 13.28125 C 52.058594 13.28125 52.078125 13.242188 52.078125 13.195312 C 52.078125 13.144531 52.121094 13.070312 52.171875 13.023438 C 52.273438 12.929688 52.40625 12.6875 52.40625 12.589844 C 52.40625 12.558594 52.429688 12.527344 52.453125 12.527344 C 52.480469 12.527344 52.5 12.488281 52.5 12.441406 C 52.5 12.386719 52.519531 12.335938 52.542969 12.316406 C 52.601562 12.285156 52.734375 12.019531 52.734375 11.933594 C 52.734375 11.898438 52.757812 11.871094 52.78125 11.871094 C 52.808594 11.871094 52.828125 11.835938 52.832031 11.789062 C 52.832031 11.746094 52.875 11.640625 52.921875 11.566406 C 53.070312 11.324219 53.15625 11.152344 53.15625 11.089844 C 53.15625 11.054688 53.179688 11.027344 53.203125 11.027344 C 53.230469 11.027344 53.25 11.003906 53.25 10.980469 C 53.25 10.953125 53.207031 10.933594 53.160156 10.933594 C 53.109375 10.933594 53.054688 10.953125 53.039062 10.980469 Z M 53.039062 10.980469 "/>
<path style=" stroke:none;fill-rule:nonzero;fill:rgb(100%,92.156863%,23.137255%);fill-opacity:1;" d="M 30.257812 12.152344 C 30.238281 12.183594 30.007812 12.199219 29.714844 12.199219 C 29.40625 12.199219 29.203125 12.21875 29.203125 12.246094 C 29.203125 12.277344 29.058594 12.292969 28.855469 12.292969 C 28.609375 12.292969 28.496094 12.3125 28.453125 12.363281 C 28.414062 12.410156 28.3125 12.433594 28.167969 12.433594 C 28.046875 12.433594 27.929688 12.453125 27.914062 12.480469 C 27.898438 12.503906 27.769531 12.527344 27.628906 12.527344 C 27.488281 12.527344 27.375 12.546875 27.375 12.574219 C 27.375 12.597656 27.28125 12.621094 27.164062 12.621094 C 27.046875 12.621094 26.953125 12.640625 26.953125 12.667969 C 26.953125 12.695312 26.890625 12.71875 26.816406 12.71875 C 26.742188 12.71875 26.65625 12.75 26.625 12.789062 C 26.59375 12.828125 26.488281 12.859375 26.386719 12.859375 C 26.28125 12.859375 26.203125 12.875 26.203125 12.90625 C 26.203125 12.929688 26.140625 12.953125 26.066406 12.953125 C 25.988281 12.953125 25.914062 12.96875 25.898438 13 C 25.882812 13.023438 25.835938 13.046875 25.800781 13.046875 C 25.757812 13.046875 25.691406 13.078125 25.65625 13.121094 C 25.613281 13.15625 25.542969 13.179688 25.496094 13.171875 C 25.449219 13.15625 25.386719 13.175781 25.355469 13.214844 C 25.328125 13.25 25.242188 13.28125 25.167969 13.28125 C 25.09375 13.28125 25.03125 13.296875 25.03125 13.328125 C 25.03125 13.351562 24.96875 13.375 24.894531 13.375 C 24.816406 13.375 24.742188 13.390625 24.726562 13.421875 C 24.710938 13.445312 24.660156 13.46875 24.609375 13.46875 C 24.5625 13.46875 24.515625 13.5 24.496094 13.539062 C 24.484375 13.574219 24.441406 13.609375 24.402344 13.609375 C 24.359375 13.609375 24.257812 13.652344 24.164062 13.703125 C 24.070312 13.753906 23.96875 13.796875 23.929688 13.796875 C 23.890625 13.796875 23.859375 13.816406 23.859375 13.84375 C 23.859375 13.867188 23.796875 13.890625 23.722656 13.890625 C 23.644531 13.890625 23.574219 13.910156 23.554688 13.933594 C 23.523438 13.992188 23.253906 14.125 23.171875 14.125 C 23.136719 14.125 23.109375 14.144531 23.109375 14.171875 C 23.109375 14.195312 23.066406 14.21875 23.019531 14.21875 C 22.96875 14.21875 22.890625 14.269531 22.835938 14.335938 C 22.785156 14.402344 22.710938 14.453125 22.671875 14.453125 C 22.632812 14.453125 22.585938 14.472656 22.570312 14.5 C 22.554688 14.523438 22.507812 14.546875 22.46875 14.546875 C 22.429688 14.546875 22.355469 14.597656 22.304688 14.664062 C 22.25 14.730469 22.171875 14.78125 22.121094 14.78125 C 22.074219 14.78125 22.03125 14.800781 22.03125 14.828125 C 22.03125 14.851562 21.992188 14.875 21.945312 14.875 C 21.898438 14.875 21.8125 14.925781 21.75 14.992188 C 21.6875 15.058594 21.613281 15.109375 21.585938 15.109375 C 21.554688 15.109375 21.492188 15.152344 21.445312 15.203125 C 21.398438 15.253906 21.332031 15.296875 21.296875 15.296875 C 21.257812 15.296875 21.160156 15.371094 21.074219 15.460938 C 20.984375 15.550781 20.886719 15.625 20.851562 15.625 C 20.8125 15.625 20.734375 15.679688 20.671875 15.742188 C 20.617188 15.804688 20.550781 15.847656 20.53125 15.835938 C 20.511719 15.828125 20.394531 15.921875 20.273438 16.046875 C 20.148438 16.179688 20.015625 16.28125 19.984375 16.28125 C 19.953125 16.28125 19.738281 16.472656 19.515625 16.707031 C 19.289062 16.933594 19.074219 17.128906 19.039062 17.128906 C 18.957031 17.128906 18.703125 17.367188 18.703125 17.441406 C 18.703125 17.480469 18.460938 17.75 18.164062 18.050781 C 17.867188 18.347656 17.625 18.621094 17.625 18.648438 C 17.625 18.679688 17.53125 18.796875 17.414062 18.910156 C 17.296875 19.023438 17.203125 19.140625 17.203125 19.167969 C 17.203125 19.195312 17.140625 19.28125 17.0625 19.355469 C 16.984375 19.433594 16.921875 19.515625 16.921875 19.554688 C 16.921875 19.585938 16.847656 19.683594 16.757812 19.773438 C 16.667969 19.867188 16.59375 19.972656 16.59375 20.003906 C 16.59375 20.042969 16.5625 20.097656 16.523438 20.132812 C 16.484375 20.164062 16.453125 20.214844 16.453125 20.25 C 16.453125 20.277344 16.410156 20.34375 16.359375 20.390625 C 16.308594 20.4375 16.265625 20.507812 16.265625 20.542969 C 16.265625 20.582031 16.214844 20.652344 16.148438 20.703125 C 16.082031 20.753906 16.03125 20.835938 16.03125 20.886719 C 16.03125 20.933594 16.011719 20.976562 15.984375 20.976562 C 15.960938 20.976562 15.9375 21.011719 15.9375 21.058594 C 15.9375 21.113281 15.894531 21.1875 15.84375 21.234375 C 15.742188 21.328125 15.609375 21.566406 15.609375 21.664062 C 15.609375 21.699219 15.589844 21.726562 15.5625 21.726562 C 15.539062 21.726562 15.515625 21.765625 15.511719 21.804688 C 15.511719 21.851562 15.46875 21.953125 15.421875 22.03125 C 15.273438 22.277344 15.1875 22.445312 15.1875 22.511719 C 15.1875 22.542969 15.167969 22.570312 15.140625 22.570312 C 15.117188 22.570312 15.09375 22.609375 15.09375 22.660156 C 15.09375 22.707031 15.0625 22.773438 15.023438 22.804688 C 14.984375 22.839844 14.953125 22.914062 14.953125 22.976562 C 14.953125 23.03125 14.933594 23.097656 14.90625 23.109375 C 14.882812 23.125 14.859375 23.179688 14.859375 23.234375 C 14.859375 23.28125 14.839844 23.320312 14.8125 23.320312 C 14.789062 23.320312 14.765625 23.382812 14.765625 23.457031 C 14.765625 23.539062 14.746094 23.613281 14.71875 23.628906 C 14.695312 23.640625 14.671875 23.699219 14.671875 23.75 C 14.671875 23.800781 14.640625 23.851562 14.601562 23.867188 C 14.5625 23.886719 14.53125 23.957031 14.53125 24.027344 C 14.53125 24.101562 14.511719 24.175781 14.484375 24.191406 C 14.460938 24.203125 14.4375 24.277344 14.4375 24.359375 C 14.4375 24.433594 14.417969 24.496094 14.390625 24.496094 C 14.367188 24.496094 14.34375 24.578125 14.34375 24.6875 C 14.34375 24.796875 14.3125 24.90625 14.273438 24.945312 C 14.234375 24.988281 14.203125 25.066406 14.203125 25.128906 C 14.203125 25.191406 14.183594 25.253906 14.15625 25.269531 C 14.132812 25.285156 14.109375 25.382812 14.109375 25.480469 C 14.109375 25.578125 14.089844 25.675781 14.0625 25.691406 C 14.039062 25.707031 14.015625 25.824219 14.015625 25.949219 C 14.015625 26.078125 13.996094 26.195312 13.96875 26.207031 C 13.945312 26.222656 13.921875 26.339844 13.921875 26.460938 C 13.921875 26.605469 13.898438 26.710938 13.851562 26.746094 C 13.804688 26.789062 13.78125 26.898438 13.78125 27.105469 C 13.78125 27.273438 13.761719 27.40625 13.734375 27.40625 C 13.707031 27.40625 13.6875 27.605469 13.6875 27.917969 C 13.6875 28.210938 13.667969 28.441406 13.640625 28.460938 C 13.574219 28.496094 13.574219 31.003906 13.640625 31.042969 C 13.667969 31.058594 13.6875 31.289062 13.6875 31.585938 C 13.6875 31.894531 13.707031 32.097656 13.734375 32.097656 C 13.761719 32.097656 13.78125 32.226562 13.78125 32.398438 C 13.78125 32.605469 13.804688 32.710938 13.851562 32.753906 C 13.898438 32.792969 13.921875 32.894531 13.921875 33.039062 C 13.921875 33.164062 13.945312 33.28125 13.96875 33.292969 C 13.996094 33.308594 14.015625 33.425781 14.015625 33.550781 C 14.015625 33.679688 14.039062 33.796875 14.0625 33.808594 C 14.089844 33.824219 14.109375 33.921875 14.109375 34.019531 C 14.109375 34.121094 14.132812 34.21875 14.15625 34.230469 C 14.183594 34.246094 14.203125 34.3125 14.203125 34.371094 C 14.203125 34.433594 14.234375 34.515625 14.273438 34.554688 C 14.3125 34.59375 14.34375 34.707031 14.34375 34.8125 C 14.34375 34.921875 14.367188 35.007812 14.390625 35.007812 C 14.417969 35.007812 14.4375 35.066406 14.4375 35.140625 C 14.4375 35.222656 14.460938 35.296875 14.484375 35.3125 C 14.511719 35.324219 14.53125 35.402344 14.53125 35.476562 C 14.53125 35.546875 14.5625 35.617188 14.601562 35.636719 C 14.640625 35.648438 14.671875 35.707031 14.671875 35.757812 C 14.671875 35.808594 14.695312 35.851562 14.71875 35.851562 C 14.746094 35.851562 14.765625 35.925781 14.765625 36.015625 C 14.765625 36.105469 14.789062 36.179688 14.8125 36.179688 C 14.839844 36.179688 14.859375 36.222656 14.859375 36.273438 C 14.859375 36.324219 14.882812 36.367188 14.90625 36.367188 C 14.933594 36.367188 14.953125 36.429688 14.953125 36.503906 C 14.953125 36.578125 14.984375 36.664062 15.023438 36.695312 C 15.0625 36.730469 15.09375 36.792969 15.09375 36.839844 C 15.09375 36.894531 15.117188 36.929688 15.140625 36.929688 C 15.167969 36.929688 15.1875 36.972656 15.1875 37.023438 C 15.1875 37.074219 15.210938 37.117188 15.234375 37.117188 C 15.261719 37.117188 15.28125 37.160156 15.28125 37.207031 C 15.28125 37.257812 15.300781 37.308594 15.324219 37.328125 C 15.382812 37.363281 15.515625 37.628906 15.515625 37.714844 C 15.515625 37.746094 15.539062 37.773438 15.5625 37.773438 C 15.589844 37.773438 15.609375 37.804688 15.609375 37.835938 C 15.609375 37.933594 15.742188 38.175781 15.84375 38.269531 C 15.894531 38.316406 15.9375 38.390625 15.9375 38.441406 C 15.9375 38.488281 15.960938 38.527344 15.984375 38.527344 C 16.011719 38.527344 16.03125 38.566406 16.03125 38.613281 C 16.03125 38.667969 16.082031 38.746094 16.148438 38.796875 C 16.214844 38.851562 16.265625 38.921875 16.265625 38.957031 C 16.265625 38.996094 16.308594 39.066406 16.359375 39.113281 C 16.410156 39.160156 16.453125 39.226562 16.453125 39.253906 C 16.453125 39.285156 16.484375 39.335938 16.523438 39.371094 C 16.5625 39.402344 16.59375 39.460938 16.59375 39.496094 C 16.59375 39.53125 16.667969 39.632812 16.757812 39.726562 C 16.847656 39.816406 16.921875 39.910156 16.921875 39.9375 C 16.921875 39.960938 16.984375 40.050781 17.0625 40.136719 C 17.136719 40.21875 17.203125 40.308594 17.203125 40.332031 C 17.203125 40.359375 17.304688 40.488281 17.433594 40.609375 C 17.5625 40.734375 17.664062 40.859375 17.65625 40.875 C 17.652344 40.898438 17.886719 41.160156 18.179688 41.453125 C 18.464844 41.746094 18.703125 42.015625 18.703125 42.054688 C 18.703125 42.128906 18.867188 42.28125 18.953125 42.28125 C 18.980469 42.28125 19.21875 42.492188 19.472656 42.75 C 19.730469 43.007812 19.964844 43.21875 19.992188 43.21875 C 20.019531 43.21875 20.136719 43.3125 20.25 43.429688 C 20.363281 43.546875 20.480469 43.640625 20.507812 43.640625 C 20.535156 43.640625 20.609375 43.691406 20.671875 43.757812 C 20.734375 43.824219 20.8125 43.875 20.851562 43.875 C 20.886719 43.875 20.992188 43.949219 21.078125 44.039062 C 21.167969 44.128906 21.265625 44.203125 21.300781 44.203125 C 21.332031 44.203125 21.398438 44.246094 21.445312 44.296875 C 21.492188 44.347656 21.554688 44.390625 21.585938 44.390625 C 21.613281 44.390625 21.6875 44.441406 21.75 44.507812 C 21.8125 44.574219 21.898438 44.625 21.945312 44.625 C 21.992188 44.625 22.03125 44.644531 22.03125 44.671875 C 22.03125 44.695312 22.070312 44.71875 22.117188 44.71875 C 22.167969 44.71875 22.242188 44.761719 22.289062 44.8125 C 22.378906 44.90625 22.617188 45.046875 22.703125 45.046875 C 22.726562 45.046875 22.785156 45.101562 22.835938 45.164062 C 22.890625 45.230469 22.96875 45.28125 23.019531 45.28125 C 23.066406 45.28125 23.109375 45.300781 23.109375 45.332031 C 23.109375 45.355469 23.140625 45.378906 23.179688 45.378906 C 23.21875 45.378906 23.320312 45.417969 23.414062 45.472656 C 23.507812 45.523438 23.628906 45.566406 23.695312 45.566406 C 23.757812 45.566406 23.816406 45.582031 23.835938 45.605469 C 23.867188 45.667969 24.136719 45.800781 24.21875 45.800781 C 24.253906 45.800781 24.28125 45.816406 24.28125 45.847656 C 24.28125 45.871094 24.324219 45.894531 24.375 45.894531 C 24.425781 45.894531 24.484375 45.925781 24.496094 45.964844 C 24.515625 46 24.5625 46.035156 24.609375 46.035156 C 24.660156 46.035156 24.710938 46.054688 24.726562 46.082031 C 24.742188 46.105469 24.816406 46.128906 24.894531 46.128906 C 24.96875 46.128906 25.03125 46.148438 25.03125 46.175781 C 25.03125 46.199219 25.09375 46.222656 25.167969 46.222656 C 25.246094 46.222656 25.320312 46.242188 25.335938 46.269531 C 25.351562 46.292969 25.429688 46.316406 25.503906 46.316406 C 25.585938 46.316406 25.65625 46.34375 25.667969 46.386719 C 25.6875 46.421875 25.734375 46.457031 25.78125 46.457031 C 25.832031 46.457031 25.882812 46.476562 25.898438 46.503906 C 25.914062 46.527344 25.988281 46.550781 26.066406 46.550781 C 26.140625 46.550781 26.203125 46.570312 26.203125 46.597656 C 26.203125 46.621094 26.28125 46.644531 26.386719 46.644531 C 26.488281 46.644531 26.59375 46.671875 26.625 46.714844 C 26.65625 46.75 26.742188 46.785156 26.816406 46.785156 C 26.886719 46.785156 26.960938 46.804688 26.976562 46.832031 C 26.992188 46.855469 27.089844 46.878906 27.191406 46.878906 C 27.289062 46.878906 27.375 46.898438 27.375 46.925781 C 27.375 46.949219 27.488281 46.972656 27.628906 46.972656 C 27.769531 46.972656 27.898438 46.996094 27.914062 47.019531 C 27.929688 47.046875 28.046875 47.066406 28.167969 47.066406 C 28.3125 47.066406 28.414062 47.089844 28.453125 47.136719 C 28.496094 47.1875 28.609375 47.207031 28.855469 47.207031 C 29.058594 47.207031 29.203125 47.226562 29.203125 47.253906 C 29.203125 47.28125 29.40625 47.300781 29.714844 47.300781 C 30.007812 47.300781 30.238281 47.320312 30.257812 47.347656 C 30.296875 47.414062 32.953125 47.414062 32.953125 47.347656 C 32.953125 47.320312 33.15625 47.300781 33.464844 47.300781 C 33.757812 47.300781 33.988281 47.28125 34.007812 47.253906 C 34.023438 47.226562 34.191406 47.207031 34.378906 47.207031 C 34.625 47.207031 34.738281 47.1875 34.78125 47.136719 C 34.820312 47.089844 34.921875 47.066406 35.066406 47.066406 C 35.195312 47.066406 35.296875 47.042969 35.296875 47.019531 C 35.296875 46.992188 35.410156 46.972656 35.550781 46.972656 C 35.691406 46.972656 35.820312 46.949219 35.835938 46.925781 C 35.851562 46.898438 35.949219 46.878906 36.046875 46.878906 C 36.144531 46.878906 36.242188 46.855469 36.257812 46.832031 C 36.273438 46.804688 36.335938 46.785156 36.394531 46.785156 C 36.453125 46.785156 36.53125 46.75 36.5625 46.714844 C 36.59375 46.671875 36.699219 46.644531 36.800781 46.644531 C 36.898438 46.644531 36.992188 46.625 37.007812 46.597656 C 37.023438 46.570312 37.097656 46.550781 37.175781 46.550781 C 37.25 46.550781 37.3125 46.527344 37.3125 46.503906 C 37.3125 46.476562 37.351562 46.457031 37.402344 46.457031 C 37.449219 46.457031 37.515625 46.421875 37.546875 46.386719 C 37.578125 46.347656 37.664062 46.316406 37.738281 46.316406 C 37.8125 46.316406 37.875 46.292969 37.875 46.269531 C 37.875 46.242188 37.9375 46.222656 38.011719 46.222656 C 38.089844 46.222656 38.164062 46.199219 38.179688 46.175781 C 38.195312 46.148438 38.265625 46.128906 38.335938 46.125 C 38.40625 46.125 38.527344 46.082031 38.601562 46.035156 C 38.84375 45.882812 39.015625 45.800781 39.078125 45.800781 C 39.113281 45.800781 39.140625 45.777344 39.140625 45.753906 C 39.140625 45.722656 39.179688 45.707031 39.230469 45.707031 C 39.277344 45.707031 39.34375 45.671875 39.375 45.636719 C 39.40625 45.597656 39.484375 45.566406 39.542969 45.566406 C 39.601562 45.566406 39.664062 45.542969 39.679688 45.519531 C 39.695312 45.488281 39.75 45.472656 39.800781 45.472656 C 39.847656 45.472656 39.890625 45.449219 39.890625 45.425781 C 39.890625 45.394531 39.917969 45.378906 39.953125 45.378906 C 40.050781 45.378906 40.289062 45.246094 40.382812 45.140625 C 40.429688 45.089844 40.503906 45.046875 40.554688 45.046875 C 40.601562 45.046875 40.640625 45.023438 40.640625 45 C 40.640625 44.972656 40.683594 44.953125 40.730469 44.953125 C 40.78125 44.953125 40.859375 44.902344 40.914062 44.835938 C 40.964844 44.773438 41.039062 44.71875 41.078125 44.71875 C 41.117188 44.71875 41.164062 44.695312 41.179688 44.671875 C 41.195312 44.644531 41.242188 44.625 41.28125 44.625 C 41.320312 44.625 41.394531 44.574219 41.445312 44.507812 C 41.5 44.441406 41.574219 44.390625 41.621094 44.390625 C 41.664062 44.390625 41.726562 44.347656 41.765625 44.296875 C 41.804688 44.246094 41.867188 44.203125 41.90625 44.203125 C 41.949219 44.203125 42.050781 44.128906 42.140625 44.039062 C 42.230469 43.949219 42.324219 43.875 42.351562 43.875 C 42.378906 43.875 42.453125 43.824219 42.515625 43.757812 C 42.578125 43.691406 42.65625 43.640625 42.695312 43.640625 C 42.730469 43.640625 42.847656 43.546875 42.957031 43.429688 C 43.070312 43.3125 43.1875 43.21875 43.222656 43.21875 C 43.261719 43.21875 43.476562 43.027344 43.707031 42.796875 C 43.9375 42.5625 44.148438 42.375 44.179688 42.375 C 44.246094 42.375 44.484375 42.128906 44.484375 42.058594 C 44.484375 42.03125 44.726562 41.769531 45.023438 41.476562 C 45.320312 41.1875 45.5625 40.917969 45.5625 40.886719 C 45.5625 40.847656 45.65625 40.730469 45.773438 40.617188 C 45.890625 40.5 45.984375 40.382812 45.984375 40.347656 C 45.984375 40.308594 46.058594 40.210938 46.148438 40.121094 C 46.238281 40.03125 46.3125 39.9375 46.3125 39.910156 C 46.3125 39.882812 46.386719 39.789062 46.476562 39.699219 C 46.566406 39.609375 46.640625 39.5 46.640625 39.453125 C 46.640625 39.40625 46.664062 39.371094 46.6875 39.371094 C 46.714844 39.371094 46.734375 39.335938 46.734375 39.296875 C 46.734375 39.253906 46.785156 39.167969 46.851562 39.109375 C 46.917969 39.046875 46.96875 38.972656 46.96875 38.933594 C 46.96875 38.898438 47 38.839844 47.039062 38.808594 C 47.082031 38.773438 47.15625 38.648438 47.210938 38.53125 C 47.265625 38.414062 47.347656 38.28125 47.394531 38.238281 C 47.445312 38.199219 47.484375 38.132812 47.488281 38.097656 C 47.488281 38.0625 47.53125 37.96875 47.578125 37.890625 C 47.726562 37.648438 47.8125 37.480469 47.8125 37.414062 C 47.8125 37.382812 47.835938 37.351562 47.859375 37.351562 C 47.886719 37.351562 47.90625 37.324219 47.90625 37.292969 C 47.90625 37.207031 48.039062 36.941406 48.097656 36.90625 C 48.121094 36.886719 48.140625 36.835938 48.140625 36.785156 C 48.140625 36.738281 48.164062 36.695312 48.1875 36.695312 C 48.214844 36.695312 48.234375 36.644531 48.234375 36.585938 C 48.234375 36.464844 48.351562 36.199219 48.425781 36.15625 C 48.449219 36.136719 48.46875 36.078125 48.46875 36.015625 C 48.46875 35.949219 48.511719 35.828125 48.5625 35.734375 C 48.613281 35.640625 48.65625 35.519531 48.65625 35.453125 C 48.65625 35.390625 48.679688 35.324219 48.703125 35.3125 C 48.730469 35.296875 48.75 35.230469 48.75 35.175781 C 48.75 35.113281 48.78125 35.039062 48.820312 35.007812 C 48.863281 34.972656 48.890625 34.871094 48.890625 34.765625 C 48.890625 34.667969 48.914062 34.574219 48.9375 34.5625 C 48.964844 34.546875 48.984375 34.472656 48.984375 34.390625 C 48.984375 34.316406 49.007812 34.253906 49.03125 34.253906 C 49.058594 34.253906 49.078125 34.171875 49.078125 34.0625 C 49.078125 33.957031 49.109375 33.84375 49.148438 33.804688 C 49.191406 33.757812 49.21875 33.644531 49.21875 33.5 C 49.21875 33.375 49.242188 33.269531 49.265625 33.269531 C 49.292969 33.269531 49.3125 33.152344 49.3125 33.011719 C 49.3125 32.871094 49.335938 32.753906 49.359375 32.753906 C 49.386719 32.753906 49.40625 32.621094 49.40625 32.453125 C 49.40625 32.285156 49.425781 32.132812 49.453125 32.121094 C 49.480469 32.101562 49.5 31.867188 49.5 31.578125 C 49.5 31.164062 49.515625 31.054688 49.570312 31.035156 C 49.632812 31.011719 49.640625 30.824219 49.640625 29.75 C 49.640625 28.675781 49.632812 28.488281 49.570312 28.464844 C 49.515625 28.445312 49.5 28.339844 49.5 27.925781 C 49.5 27.632812 49.480469 27.398438 49.453125 27.382812 C 49.429688 27.367188 49.40625 27.21875 49.40625 27.046875 C 49.40625 26.878906 49.386719 26.746094 49.359375 26.746094 C 49.335938 26.746094 49.3125 26.628906 49.3125 26.488281 C 49.3125 26.347656 49.292969 26.230469 49.265625 26.230469 C 49.242188 26.230469 49.21875 26.128906 49.21875 26 C 49.21875 25.855469 49.191406 25.742188 49.148438 25.695312 C 49.109375 25.660156 49.078125 25.546875 49.078125 25.4375 C 49.078125 25.332031 49.058594 25.246094 49.03125 25.246094 C 49.007812 25.246094 48.984375 25.183594 48.984375 25.109375 C 48.984375 25.03125 48.964844 24.953125 48.9375 24.941406 C 48.914062 24.925781 48.890625 24.832031 48.890625 24.734375 C 48.890625 24.632812 48.863281 24.527344 48.820312 24.496094 C 48.78125 24.460938 48.75 24.378906 48.75 24.304688 C 48.75 24.226562 48.730469 24.167969 48.703125 24.167969 C 48.679688 24.167969 48.65625 24.113281 48.65625 24.050781 C 48.65625 23.988281 48.613281 23.863281 48.5625 23.769531 C 48.511719 23.675781 48.46875 23.550781 48.46875 23.484375 C 48.46875 23.425781 48.449219 23.363281 48.425781 23.34375 C 48.351562 23.304688 48.234375 23.035156 48.234375 22.914062 C 48.234375 22.859375 48.214844 22.804688 48.1875 22.804688 C 48.164062 22.804688 48.140625 22.761719 48.140625 22.714844 C 48.140625 22.664062 48.121094 22.613281 48.097656 22.59375 C 48.039062 22.5625 47.90625 22.292969 47.90625 22.210938 C 47.90625 22.175781 47.886719 22.148438 47.859375 22.148438 C 47.835938 22.148438 47.8125 22.109375 47.808594 22.0625 C 47.808594 22.023438 47.765625 21.917969 47.71875 21.84375 C 47.582031 21.628906 47.484375 21.4375 47.484375 21.390625 C 47.484375 21.363281 47.433594 21.289062 47.371094 21.222656 C 47.304688 21.152344 47.265625 21.082031 47.273438 21.066406 C 47.289062 21.046875 47.265625 21.007812 47.226562 20.976562 C 47.1875 20.941406 47.15625 20.890625 47.15625 20.859375 C 47.15625 20.832031 47.113281 20.765625 47.0625 20.71875 C 47.011719 20.671875 46.96875 20.605469 46.96875 20.566406 C 46.96875 20.53125 46.917969 20.453125 46.851562 20.394531 C 46.785156 20.332031 46.734375 20.261719 46.734375 20.238281 C 46.734375 20.144531 46.59375 19.914062 46.453125 19.777344 C 46.378906 19.703125 46.3125 19.613281 46.3125 19.582031 C 46.3125 19.542969 46.238281 19.457031 46.148438 19.375 C 46.058594 19.296875 45.984375 19.195312 45.984375 19.160156 C 45.984375 19.121094 45.890625 19 45.773438 18.882812 C 45.65625 18.769531 45.5625 18.652344 45.5625 18.621094 C 45.5625 18.585938 45.320312 18.316406 45.023438 18.019531 C 44.726562 17.722656 44.484375 17.457031 44.484375 17.433594 C 44.484375 17.367188 44.242188 17.128906 44.175781 17.128906 C 44.152344 17.128906 43.941406 16.933594 43.710938 16.707031 C 43.480469 16.472656 43.261719 16.28125 43.222656 16.28125 C 43.1875 16.28125 43.070312 16.1875 42.957031 16.070312 C 42.847656 15.953125 42.730469 15.859375 42.695312 15.859375 C 42.65625 15.859375 42.578125 15.808594 42.515625 15.742188 C 42.453125 15.679688 42.378906 15.625 42.351562 15.625 C 42.324219 15.625 42.230469 15.550781 42.140625 15.460938 C 42.050781 15.371094 41.949219 15.296875 41.90625 15.296875 C 41.867188 15.296875 41.804688 15.253906 41.765625 15.203125 C 41.726562 15.152344 41.664062 15.109375 41.621094 15.109375 C 41.578125 15.109375 41.503906 15.058594 41.457031 14.992188 C 41.410156 14.925781 41.34375 14.875 41.316406 14.875 C 41.226562 14.875 40.988281 14.738281 40.898438 14.640625 C 40.851562 14.589844 40.777344 14.546875 40.726562 14.546875 C 40.679688 14.546875 40.640625 14.523438 40.640625 14.5 C 40.640625 14.472656 40.601562 14.453125 40.554688 14.453125 C 40.503906 14.453125 40.429688 14.410156 40.382812 14.359375 C 40.289062 14.257812 40.050781 14.125 39.953125 14.125 C 39.917969 14.125 39.890625 14.101562 39.890625 14.078125 C 39.890625 14.050781 39.851562 14.03125 39.800781 14.03125 C 39.753906 14.03125 39.6875 13.996094 39.65625 13.960938 C 39.625 13.921875 39.546875 13.890625 39.488281 13.890625 C 39.429688 13.890625 39.367188 13.867188 39.351562 13.84375 C 39.335938 13.816406 39.28125 13.796875 39.230469 13.796875 C 39.183594 13.796875 39.140625 13.773438 39.140625 13.75 C 39.140625 13.722656 39.101562 13.703125 39.0625 13.699219 C 39.015625 13.699219 38.914062 13.65625 38.835938 13.609375 C 38.5625 13.441406 38.421875 13.375 38.316406 13.375 C 38.253906 13.375 38.195312 13.351562 38.179688 13.328125 C 38.164062 13.296875 38.089844 13.28125 38.011719 13.28125 C 37.9375 13.28125 37.875 13.257812 37.875 13.234375 C 37.875 13.203125 37.8125 13.1875 37.738281 13.1875 C 37.660156 13.1875 37.589844 13.167969 37.570312 13.144531 C 37.527344 13.070312 37.261719 12.953125 37.144531 12.953125 C 37.082031 12.953125 37.023438 12.929688 37.007812 12.90625 C 36.992188 12.875 36.898438 12.859375 36.800781 12.859375 C 36.699219 12.859375 36.59375 12.828125 36.5625 12.789062 C 36.53125 12.75 36.453125 12.71875 36.394531 12.71875 C 36.335938 12.71875 36.273438 12.695312 36.257812 12.667969 C 36.242188 12.640625 36.144531 12.621094 36.046875 12.621094 C 35.949219 12.621094 35.851562 12.597656 35.835938 12.574219 C 35.820312 12.546875 35.703125 12.527344 35.578125 12.527344 C 35.453125 12.527344 35.335938 12.503906 35.320312 12.480469 C 35.304688 12.453125 35.1875 12.433594 35.066406 12.433594 C 34.921875 12.433594 34.820312 12.410156 34.78125 12.363281 C 34.738281 12.3125 34.625 12.292969 34.378906 12.292969 C 34.191406 12.292969 34.023438 12.269531 34.007812 12.246094 C 33.988281 12.21875 33.757812 12.199219 33.464844 12.199219 C 33.15625 12.199219 32.953125 12.183594 32.953125 12.152344 C 32.953125 12.125 32.480469 12.105469 31.621094 12.105469 C 30.78125 12.105469 30.277344 12.125 30.257812 12.152344 Z M 30.257812 12.152344 "/>
<path style=" stroke:none;fill-rule:nonzero;fill:rgb(100%,92.156863%,23.137255%);fill-opacity:1;" d="M 12.609375 23.058594 C 12.578125 23.105469 12.476562 23.132812 12.371094 23.132812 C 12.265625 23.132812 12.1875 23.152344 12.1875 23.179688 C 12.1875 23.203125 12.09375 23.226562 11.976562 23.226562 C 11.859375 23.226562 11.765625 23.246094 11.765625 23.273438 C 11.765625 23.304688 11.644531 23.320312 11.492188 23.320312 C 11.234375 23.320312 10.960938 23.410156 10.898438 23.515625 C 10.878906 23.539062 10.828125 23.554688 10.777344 23.554688 C 10.730469 23.554688 10.6875 23.574219 10.6875 23.605469 C 10.6875 23.628906 10.648438 23.652344 10.601562 23.652344 C 10.550781 23.652344 10.476562 23.691406 10.429688 23.746094 C 10.335938 23.847656 10.097656 23.980469 10 23.980469 C 9.964844 23.980469 9.9375 23.996094 9.9375 24.027344 C 9.9375 24.050781 9.894531 24.074219 9.84375 24.074219 C 9.792969 24.074219 9.75 24.089844 9.75 24.121094 C 9.75 24.144531 9.710938 24.167969 9.664062 24.167969 C 9.613281 24.167969 9.539062 24.207031 9.492188 24.261719 C 9.40625 24.355469 9.164062 24.496094 9.085938 24.496094 C 9.0625 24.496094 9.007812 24.527344 8.96875 24.566406 C 8.929688 24.601562 8.882812 24.625 8.859375 24.613281 C 8.835938 24.597656 8.78125 24.640625 8.726562 24.707031 C 8.675781 24.773438 8.617188 24.824219 8.59375 24.824219 C 8.527344 24.824219 8.253906 24.964844 8.226562 25.015625 C 8.207031 25.039062 8.15625 25.058594 8.105469 25.058594 C 8.058594 25.058594 8.015625 25.078125 8.015625 25.105469 C 8.015625 25.128906 7.976562 25.152344 7.929688 25.152344 C 7.882812 25.152344 7.777344 25.226562 7.6875 25.316406 C 7.597656 25.40625 7.503906 25.480469 7.476562 25.480469 C 7.449219 25.480469 7.332031 25.574219 7.21875 25.691406 C 7.105469 25.808594 6.984375 25.902344 6.945312 25.902344 C 6.914062 25.902344 6.792969 25.996094 6.683594 26.113281 C 6.570312 26.230469 6.449219 26.324219 6.417969 26.324219 C 6.378906 26.324219 6.238281 26.441406 6.097656 26.582031 C 5.957031 26.722656 5.820312 26.839844 5.792969 26.839844 C 5.761719 26.839844 5.632812 26.945312 5.507812 27.074219 C 5.382812 27.203125 5.25 27.3125 5.21875 27.3125 C 5.183594 27.3125 5.070312 27.40625 4.960938 27.523438 C 4.847656 27.640625 4.730469 27.734375 4.695312 27.734375 C 4.613281 27.734375 4.398438 27.957031 4.425781 28.011719 C 4.445312 28.035156 4.492188 28.042969 4.539062 28.027344 C 4.585938 28.019531 4.648438 28.042969 4.683594 28.082031 C 4.726562 28.132812 4.828125 28.15625 4.996094 28.15625 C 5.136719 28.15625 5.25 28.175781 5.25 28.203125 C 5.25 28.226562 5.367188 28.25 5.507812 28.25 C 5.648438 28.25 5.765625 28.269531 5.765625 28.296875 C 5.765625 28.320312 5.878906 28.34375 6.019531 28.34375 C 6.183594 28.34375 6.289062 28.367188 6.328125 28.414062 C 6.367188 28.460938 6.46875 28.484375 6.613281 28.484375 C 6.734375 28.484375 6.851562 28.503906 6.867188 28.53125 C 6.882812 28.554688 7 28.578125 7.125 28.578125 C 7.25 28.578125 7.367188 28.597656 7.382812 28.625 C 7.398438 28.648438 7.472656 28.671875 7.550781 28.671875 C 7.625 28.671875 7.6875 28.691406 7.6875 28.71875 C 7.6875 28.742188 7.730469 28.765625 7.777344 28.765625 C 7.828125 28.765625 7.878906 28.785156 7.898438 28.808594 C 7.929688 28.867188 8.199219 29 8.28125 29 C 8.316406 29 8.34375 29.019531 8.34375 29.046875 C 8.34375 29.070312 8.382812 29.09375 8.433594 29.09375 C 8.480469 29.09375 8.546875 29.125 8.578125 29.164062 C 8.609375 29.203125 8.664062 29.234375 8.695312 29.234375 C 8.726562 29.234375 8.78125 29.265625 8.816406 29.308594 C 8.851562 29.351562 8.980469 29.425781 9.101562 29.484375 C 9.226562 29.535156 9.328125 29.597656 9.328125 29.621094 C 9.328125 29.636719 9.359375 29.65625 9.398438 29.65625 C 9.4375 29.65625 9.539062 29.699219 9.632812 29.75 C 9.726562 29.800781 9.828125 29.84375 9.867188 29.84375 C 9.90625 29.84375 9.9375 29.863281 9.9375 29.886719 C 9.9375 29.910156 9.984375 29.949219 10.046875 29.964844 C 10.101562 29.984375 10.179688 30.035156 10.222656 30.082031 C 10.265625 30.136719 10.320312 30.171875 10.34375 30.171875 C 10.410156 30.171875 10.683594 30.3125 10.710938 30.367188 C 10.730469 30.390625 10.78125 30.40625 10.832031 30.40625 C 10.878906 30.40625 10.921875 30.425781 10.921875 30.453125 C 10.921875 30.476562 10.953125 30.5 10.992188 30.5 C 11.03125 30.5 11.132812 30.542969 11.226562 30.59375 C 11.320312 30.648438 11.40625 30.6875 11.414062 30.6875 C 11.429688 30.6875 11.4375 30.476562 11.4375 30.21875 C 11.4375 29.9375 11.457031 29.75 11.484375 29.75 C 11.511719 29.75 11.53125 29.421875 11.53125 28.863281 C 11.53125 28.136719 11.546875 27.96875 11.601562 27.921875 C 11.65625 27.875 11.671875 27.75 11.671875 27.375 C 11.671875 27.105469 11.691406 26.878906 11.71875 26.863281 C 11.746094 26.851562 11.765625 26.777344 11.765625 26.699219 C 11.765625 26.625 11.789062 26.550781 11.8125 26.535156 C 11.839844 26.523438 11.859375 26.445312 11.859375 26.371094 C 11.859375 26.300781 11.890625 26.230469 11.929688 26.210938 C 11.972656 26.199219 12 26.128906 12 26.046875 C 12 25.972656 12.023438 25.894531 12.046875 25.878906 C 12.074219 25.867188 12.09375 25.789062 12.09375 25.710938 C 12.09375 25.636719 12.117188 25.574219 12.140625 25.574219 C 12.167969 25.574219 12.1875 25.511719 12.1875 25.4375 C 12.1875 25.359375 12.210938 25.285156 12.234375 25.269531 C 12.261719 25.253906 12.28125 25.160156 12.28125 25.0625 C 12.28125 24.960938 12.308594 24.855469 12.351562 24.824219 C 12.390625 24.789062 12.421875 24.707031 12.421875 24.632812 C 12.421875 24.554688 12.445312 24.496094 12.46875 24.496094 C 12.496094 24.496094 12.515625 24.433594 12.515625 24.359375 C 12.515625 24.277344 12.539062 24.203125 12.5625 24.191406 C 12.589844 24.175781 12.609375 24.101562 12.609375 24.03125 C 12.609375 23.957031 12.640625 23.871094 12.679688 23.839844 C 12.71875 23.804688 12.75 23.730469 12.75 23.667969 C 12.75 23.613281 12.773438 23.546875 12.796875 23.53125 C 12.824219 23.519531 12.84375 23.445312 12.84375 23.363281 C 12.84375 23.289062 12.867188 23.226562 12.894531 23.226562 C 12.921875 23.226562 12.9375 23.179688 12.929688 23.121094 C 12.910156 22.992188 12.703125 22.953125 12.609375 23.058594 Z M 12.609375 23.058594 "/>
<path style=" stroke:none;fill-rule:nonzero;fill:rgb(100%,92.156863%,23.137255%);fill-opacity:1;" d="M 51.140625 27.617188 C 51.140625 27.734375 51.164062 27.828125 51.1875 27.828125 C 51.214844 27.828125 51.234375 27.980469 51.234375 28.203125 C 51.234375 28.421875 51.253906 28.578125 51.28125 28.578125 C 51.308594 28.578125 51.328125 28.75 51.328125 29 C 51.328125 29.25 51.347656 29.421875 51.375 29.421875 C 51.402344 29.421875 51.421875 29.566406 51.421875 29.769531 C 51.421875 30.019531 51.441406 30.132812 51.492188 30.171875 C 51.539062 30.210938 51.5625 30.320312 51.5625 30.5 C 51.5625 30.683594 51.539062 30.792969 51.492188 30.832031 C 51.449219 30.863281 51.421875 30.964844 51.421875 31.070312 C 51.421875 31.171875 51.402344 31.253906 51.375 31.253906 C 51.351562 31.253906 51.328125 31.347656 51.328125 31.464844 C 51.328125 31.582031 51.308594 31.675781 51.28125 31.675781 C 51.257812 31.675781 51.234375 31.789062 51.234375 31.929688 C 51.234375 32.070312 51.214844 32.199219 51.1875 32.214844 C 51.164062 32.226562 51.140625 32.328125 51.140625 32.429688 C 51.140625 32.550781 51.117188 32.628906 51.070312 32.640625 C 51.023438 32.660156 51 32.734375 51 32.875 C 51 32.988281 50.980469 33.082031 50.953125 33.082031 C 50.929688 33.082031 50.90625 33.199219 50.90625 33.339844 C 50.90625 33.480469 50.886719 33.597656 50.859375 33.597656 C 50.835938 33.597656 50.8125 33.683594 50.8125 33.792969 C 50.8125 33.902344 50.78125 34.011719 50.738281 34.054688 C 50.691406 34.101562 50.671875 34.179688 50.679688 34.265625 C 50.695312 34.339844 50.675781 34.417969 50.640625 34.449219 C 50.605469 34.476562 50.578125 34.5625 50.578125 34.636719 C 50.578125 34.765625 50.585938 34.773438 50.785156 34.773438 C 50.902344 34.773438 51.007812 34.75 51.023438 34.726562 C 51.039062 34.695312 51.210938 34.679688 51.402344 34.679688 C 51.605469 34.679688 51.75 34.660156 51.75 34.632812 C 51.75 34.601562 51.894531 34.585938 52.097656 34.585938 C 52.34375 34.585938 52.457031 34.566406 52.5 34.515625 C 52.542969 34.460938 52.65625 34.445312 52.902344 34.445312 C 53.089844 34.445312 53.257812 34.417969 53.273438 34.394531 C 53.289062 34.367188 53.460938 34.347656 53.652344 34.347656 C 53.855469 34.347656 54 34.332031 54 34.300781 C 54 34.273438 54.15625 34.253906 54.371094 34.253906 C 54.65625 34.253906 54.746094 34.242188 54.769531 34.183594 C 54.789062 34.132812 54.871094 34.113281 55.101562 34.113281 C 55.273438 34.113281 55.40625 34.097656 55.40625 34.066406 C 55.40625 34.039062 55.5625 34.019531 55.78125 34.019531 C 56 34.019531 56.15625 34.003906 56.15625 33.972656 C 56.15625 33.945312 56.300781 33.925781 56.503906 33.925781 C 56.695312 33.925781 56.867188 33.902344 56.882812 33.878906 C 56.898438 33.851562 57.066406 33.832031 57.253906 33.832031 C 57.5 33.832031 57.613281 33.816406 57.65625 33.761719 C 57.699219 33.710938 57.8125 33.691406 58.058594 33.691406 C 58.261719 33.691406 58.40625 33.671875 58.40625 33.644531 C 58.40625 33.617188 58.5 33.597656 58.617188 33.597656 C 58.734375 33.597656 58.828125 33.589844 58.828125 33.574219 C 58.828125 33.523438 58.542969 33.269531 58.484375 33.269531 C 58.453125 33.269531 58.332031 33.175781 58.21875 33.058594 C 58.105469 32.941406 57.988281 32.847656 57.960938 32.847656 C 57.933594 32.847656 57.816406 32.753906 57.703125 32.636719 C 57.589844 32.519531 57.46875 32.425781 57.4375 32.425781 C 57.402344 32.425781 57.28125 32.332031 57.171875 32.214844 C 57.0625 32.097656 56.9375 32.003906 56.898438 32.003906 C 56.859375 32.003906 56.746094 31.910156 56.644531 31.792969 C 56.546875 31.679688 56.429688 31.582031 56.390625 31.582031 C 56.347656 31.582031 56.222656 31.488281 56.109375 31.371094 C 55.996094 31.253906 55.878906 31.160156 55.851562 31.160156 C 55.824219 31.160156 55.691406 31.054688 55.566406 30.925781 C 55.4375 30.796875 55.308594 30.6875 55.273438 30.6875 C 55.242188 30.6875 55.097656 30.570312 54.960938 30.429688 C 54.820312 30.289062 54.679688 30.171875 54.640625 30.171875 C 54.609375 30.171875 54.488281 30.078125 54.375 29.960938 C 54.261719 29.84375 54.144531 29.75 54.117188 29.75 C 54.089844 29.75 53.972656 29.65625 53.859375 29.539062 C 53.746094 29.421875 53.625 29.328125 53.597656 29.328125 C 53.5625 29.328125 53.441406 29.234375 53.328125 29.117188 C 53.210938 29 53.089844 28.90625 53.054688 28.90625 C 53.019531 28.90625 52.902344 28.8125 52.789062 28.695312 C 52.679688 28.578125 52.566406 28.484375 52.53125 28.484375 C 52.5 28.484375 52.367188 28.378906 52.242188 28.25 C 52.121094 28.121094 52.003906 28.027344 51.984375 28.039062 C 51.964844 28.046875 51.847656 27.953125 51.722656 27.828125 C 51.59375 27.699219 51.460938 27.59375 51.421875 27.59375 C 51.378906 27.59375 51.320312 27.550781 51.28125 27.5 C 51.179688 27.351562 51.140625 27.386719 51.140625 27.617188 Z M 51.140625 27.617188 "/>
<path style=" stroke:none;fill-rule:nonzero;fill:rgb(100%,92.156863%,23.137255%);fill-opacity:1;" d="M 11.828125 38.503906 C 11.792969 38.539062 11.765625 38.585938 11.765625 38.609375 C 11.765625 38.675781 11.625 38.945312 11.574219 38.972656 C 11.550781 38.992188 11.53125 39.042969 11.53125 39.09375 C 11.53125 39.140625 11.511719 39.183594 11.484375 39.183594 C 11.460938 39.183594 11.4375 39.226562 11.4375 39.277344 C 11.4375 39.328125 11.417969 39.371094 11.390625 39.371094 C 11.367188 39.371094 11.34375 39.40625 11.34375 39.453125 C 11.34375 39.507812 11.300781 39.582031 11.25 39.628906 C 11.148438 39.722656 11.015625 39.960938 11.015625 40.058594 C 11.015625 40.09375 10.996094 40.121094 10.96875 40.121094 C 10.945312 40.121094 10.921875 40.160156 10.921875 40.210938 C 10.921875 40.257812 10.890625 40.324219 10.851562 40.355469 C 10.8125 40.390625 10.78125 40.441406 10.78125 40.472656 C 10.78125 40.5 10.738281 40.566406 10.6875 40.613281 C 10.636719 40.660156 10.59375 40.734375 10.59375 40.789062 C 10.59375 40.835938 10.574219 40.871094 10.546875 40.871094 C 10.523438 40.871094 10.5 40.914062 10.5 40.960938 C 10.5 41.011719 10.480469 41.066406 10.457031 41.078125 C 10.40625 41.113281 10.171875 41.570312 10.171875 41.636719 C 10.171875 41.660156 10.121094 41.730469 10.054688 41.792969 C 9.988281 41.851562 9.9375 41.917969 9.9375 41.941406 C 9.9375 42.003906 9.699219 42.464844 9.652344 42.496094 C 9.628906 42.511719 9.609375 42.558594 9.609375 42.597656 C 9.609375 42.644531 9.566406 42.710938 9.515625 42.75 C 9.464844 42.785156 9.421875 42.851562 9.421875 42.890625 C 9.421875 42.933594 9.371094 43.015625 9.304688 43.078125 C 9.238281 43.140625 9.1875 43.214844 9.1875 43.242188 C 9.1875 43.273438 9.144531 43.335938 9.09375 43.382812 C 9.042969 43.429688 9 43.496094 9 43.53125 C 9 43.570312 8.949219 43.644531 8.882812 43.707031 C 8.816406 43.765625 8.765625 43.847656 8.765625 43.886719 C 8.765625 43.921875 8.691406 44.019531 8.601562 44.109375 C 8.511719 44.199219 8.4375 44.292969 8.4375 44.320312 C 8.4375 44.355469 8.394531 44.414062 8.34375 44.460938 C 8.292969 44.507812 8.25 44.570312 8.25 44.601562 C 8.25 44.632812 8.199219 44.707031 8.132812 44.765625 C 8.066406 44.828125 8.015625 44.914062 8.015625 44.953125 C 8.015625 44.992188 7.972656 45.058594 7.921875 45.09375 C 7.871094 45.132812 7.828125 45.199219 7.828125 45.246094 C 7.828125 45.289062 7.808594 45.339844 7.78125 45.355469 C 7.757812 45.367188 7.734375 45.402344 7.734375 45.429688 C 7.734375 45.484375 8.1875 45.484375 8.226562 45.425781 C 8.246094 45.394531 8.476562 45.378906 8.765625 45.378906 C 9.054688 45.378906 9.285156 45.359375 9.304688 45.332031 C 9.320312 45.300781 9.53125 45.28125 9.769531 45.28125 C 10.101562 45.28125 10.222656 45.265625 10.265625 45.210938 C 10.3125 45.15625 10.4375 45.140625 10.832031 45.140625 C 11.140625 45.140625 11.34375 45.125 11.34375 45.09375 C 11.34375 45.066406 11.585938 45.046875 11.976562 45.046875 C 12.367188 45.046875 12.609375 45.03125 12.609375 45 C 12.609375 44.972656 12.847656 44.953125 13.234375 44.953125 C 13.625 44.953125 13.875 44.9375 13.90625 44.902344 C 13.941406 44.871094 14.171875 44.851562 14.539062 44.855469 C 15.019531 44.867188 15.136719 44.851562 15.1875 44.789062 C 15.234375 44.734375 15.359375 44.71875 15.847656 44.71875 C 16.195312 44.71875 16.457031 44.703125 16.476562 44.671875 C 16.492188 44.644531 16.640625 44.625 16.808594 44.625 C 16.972656 44.625 17.109375 44.613281 17.109375 44.589844 C 17.109375 44.527344 15.914062 43.359375 15.851562 43.359375 C 15.773438 43.359375 14.4375 42.015625 14.4375 41.941406 C 14.4375 41.90625 14.320312 41.769531 14.179688 41.632812 C 14.039062 41.496094 13.921875 41.359375 13.921875 41.328125 C 13.921875 41.292969 13.796875 41.144531 13.640625 40.988281 C 13.484375 40.835938 13.359375 40.683594 13.359375 40.65625 C 13.359375 40.625 13.285156 40.53125 13.195312 40.445312 C 13.105469 40.355469 13.03125 40.253906 13.03125 40.207031 C 13.03125 40.160156 13.011719 40.121094 12.984375 40.121094 C 12.960938 40.121094 12.9375 40.082031 12.9375 40.035156 C 12.9375 39.988281 12.886719 39.902344 12.820312 39.839844 C 12.757812 39.785156 12.71875 39.71875 12.726562 39.699219 C 12.734375 39.679688 12.695312 39.613281 12.632812 39.558594 C 12.566406 39.496094 12.515625 39.40625 12.515625 39.359375 C 12.515625 39.3125 12.496094 39.277344 12.46875 39.277344 C 12.445312 39.277344 12.421875 39.234375 12.421875 39.1875 C 12.421875 39.136719 12.371094 39.054688 12.304688 39.003906 C 12.238281 38.953125 12.1875 38.878906 12.1875 38.839844 C 12.1875 38.796875 12.167969 38.75 12.140625 38.738281 C 12.117188 38.722656 12.09375 38.675781 12.09375 38.632812 C 12.09375 38.566406 11.96875 38.4375 11.90625 38.4375 C 11.890625 38.4375 11.855469 38.464844 11.828125 38.503906 Z M 11.828125 38.503906 "/>
<path style=" stroke:none;fill-rule:nonzero;fill:rgb(100%,92.156863%,23.137255%);fill-opacity:1;" d="M 46.917969 41.9375 C 46.820312 42.0625 46.734375 42.222656 46.734375 42.292969 C 46.734375 42.328125 46.691406 42.382812 46.640625 42.421875 C 46.589844 42.457031 46.546875 42.523438 46.546875 42.570312 C 46.546875 42.613281 46.527344 42.660156 46.503906 42.679688 C 46.453125 42.707031 46.3125 42.980469 46.3125 43.042969 C 46.3125 43.066406 46.261719 43.128906 46.195312 43.179688 C 46.128906 43.234375 46.078125 43.3125 46.078125 43.363281 C 46.078125 43.410156 46.058594 43.453125 46.03125 43.453125 C 46.007812 43.453125 45.984375 43.492188 45.984375 43.539062 C 45.984375 43.640625 45.84375 43.78125 45.746094 43.78125 C 45.707031 43.78125 45.648438 43.824219 45.609375 43.875 C 45.570312 43.925781 45.507812 43.96875 45.464844 43.96875 C 45.417969 43.96875 45.34375 44.019531 45.289062 44.085938 C 45.238281 44.152344 45.167969 44.203125 45.132812 44.203125 C 45.09375 44.203125 44.996094 44.277344 44.90625 44.367188 C 44.816406 44.457031 44.722656 44.53125 44.695312 44.53125 C 44.664062 44.53125 44.601562 44.574219 44.554688 44.625 C 44.507812 44.679688 44.441406 44.71875 44.40625 44.71875 C 44.367188 44.71875 44.292969 44.773438 44.230469 44.835938 C 44.171875 44.902344 44.089844 44.953125 44.054688 44.953125 C 44.015625 44.953125 43.945312 44.996094 43.898438 45.046875 C 43.851562 45.101562 43.789062 45.140625 43.757812 45.140625 C 43.730469 45.140625 43.65625 45.195312 43.59375 45.257812 C 43.53125 45.324219 43.453125 45.378906 43.414062 45.378906 C 43.378906 45.378906 43.285156 45.453125 43.203125 45.542969 C 43.128906 45.628906 43.03125 45.707031 42.988281 45.707031 C 42.945312 45.707031 42.882812 45.746094 42.84375 45.800781 C 42.804688 45.851562 42.742188 45.894531 42.699219 45.894531 C 42.65625 45.894531 42.585938 45.933594 42.539062 45.988281 C 42.445312 46.089844 42.207031 46.222656 42.109375 46.222656 C 42.074219 46.222656 42.046875 46.242188 42.046875 46.269531 C 42.046875 46.292969 42.007812 46.316406 41.957031 46.316406 C 41.910156 46.316406 41.84375 46.347656 41.8125 46.386719 C 41.78125 46.421875 41.695312 46.457031 41.621094 46.457031 C 41.546875 46.457031 41.484375 46.476562 41.484375 46.503906 C 41.484375 46.527344 41.441406 46.550781 41.390625 46.550781 C 41.339844 46.550781 41.296875 46.570312 41.296875 46.597656 C 41.296875 46.621094 41.234375 46.644531 41.160156 46.644531 C 41.085938 46.644531 41 46.675781 40.96875 46.714844 C 40.9375 46.75 40.859375 46.785156 40.800781 46.785156 C 40.738281 46.785156 40.617188 46.828125 40.523438 46.878906 C 40.429688 46.929688 40.328125 46.972656 40.289062 46.972656 C 40.25 46.972656 40.21875 46.992188 40.21875 47.011719 C 40.21875 47.074219 40.382812 47.207031 40.46875 47.207031 C 40.507812 47.207031 40.546875 47.226562 40.546875 47.253906 C 40.546875 47.277344 40.574219 47.300781 40.609375 47.300781 C 40.691406 47.300781 40.960938 47.433594 40.992188 47.492188 C 41.011719 47.515625 41.039062 47.527344 41.0625 47.511719 C 41.082031 47.5 41.125 47.523438 41.15625 47.558594 C 41.1875 47.597656 41.253906 47.628906 41.300781 47.628906 C 41.351562 47.628906 41.390625 47.648438 41.390625 47.675781 C 41.390625 47.699219 41.417969 47.722656 41.453125 47.722656 C 41.550781 47.722656 41.789062 47.855469 41.882812 47.957031 C 41.929688 48.007812 42.003906 48.050781 42.054688 48.050781 C 42.101562 48.050781 42.140625 48.070312 42.140625 48.097656 C 42.140625 48.121094 42.179688 48.144531 42.230469 48.144531 C 42.277344 48.144531 42.34375 48.179688 42.375 48.214844 C 42.40625 48.253906 42.449219 48.277344 42.46875 48.261719 C 42.492188 48.25 42.519531 48.257812 42.539062 48.28125 C 42.570312 48.34375 42.839844 48.472656 42.921875 48.472656 C 42.957031 48.472656 42.984375 48.492188 42.984375 48.519531 C 42.984375 48.542969 43.027344 48.566406 43.074219 48.566406 C 43.125 48.566406 43.175781 48.585938 43.195312 48.609375 C 43.226562 48.671875 43.496094 48.800781 43.578125 48.800781 C 43.613281 48.800781 43.640625 48.820312 43.640625 48.847656 C 43.640625 48.871094 43.683594 48.894531 43.730469 48.894531 C 43.78125 48.894531 43.835938 48.914062 43.851562 48.945312 C 43.867188 48.96875 43.929688 48.992188 43.988281 48.992188 C 44.046875 48.992188 44.125 49.023438 44.15625 49.0625 C 44.1875 49.097656 44.253906 49.132812 44.300781 49.132812 C 44.351562 49.132812 44.390625 49.148438 44.390625 49.179688 C 44.390625 49.203125 44.453125 49.226562 44.527344 49.226562 C 44.605469 49.226562 44.679688 49.242188 44.695312 49.273438 C 44.710938 49.296875 44.785156 49.320312 44.859375 49.320312 C 44.933594 49.320312 45.003906 49.335938 45.023438 49.359375 C 45.066406 49.4375 45.332031 49.554688 45.453125 49.554688 C 45.511719 49.554688 45.5625 49.570312 45.5625 49.601562 C 45.5625 49.625 45.605469 49.648438 45.652344 49.648438 C 45.703125 49.648438 45.757812 49.667969 45.773438 49.695312 C 45.789062 49.71875 45.851562 49.742188 45.910156 49.742188 C 45.96875 49.742188 46.046875 49.773438 46.078125 49.8125 C 46.109375 49.847656 46.175781 49.882812 46.222656 49.882812 C 46.273438 49.882812 46.3125 49.902344 46.3125 49.929688 C 46.3125 49.953125 46.375 49.976562 46.449219 49.976562 C 46.527344 49.976562 46.601562 49.996094 46.617188 50.023438 C 46.632812 50.046875 46.707031 50.070312 46.777344 50.070312 C 46.851562 50.070312 46.9375 50.101562 46.96875 50.140625 C 47 50.175781 47.042969 50.199219 47.0625 50.1875 C 47.082031 50.171875 47.125 50.195312 47.15625 50.234375 C 47.1875 50.269531 47.273438 50.304688 47.347656 50.304688 C 47.421875 50.304688 47.484375 50.324219 47.484375 50.351562 C 47.484375 50.375 47.527344 50.398438 47.574219 50.398438 C 47.625 50.398438 47.679688 50.421875 47.695312 50.445312 C 47.710938 50.472656 47.785156 50.492188 47.859375 50.492188 C 47.929688 50.492188 48 50.523438 48.019531 50.5625 C 48.03125 50.601562 48.089844 50.632812 48.140625 50.632812 C 48.191406 50.632812 48.234375 50.652344 48.234375 50.679688 C 48.234375 50.703125 48.308594 50.726562 48.398438 50.726562 C 48.488281 50.726562 48.5625 50.746094 48.5625 50.773438 C 48.5625 50.796875 48.605469 50.820312 48.652344 50.820312 C 48.703125 50.820312 48.757812 50.839844 48.773438 50.867188 C 48.789062 50.890625 48.851562 50.914062 48.910156 50.914062 C 48.96875 50.914062 49.046875 50.945312 49.078125 50.984375 C 49.109375 51.023438 49.195312 51.054688 49.269531 51.054688 C 49.34375 51.054688 49.40625 51.074219 49.40625 51.101562 C 49.40625 51.125 49.449219 51.148438 49.496094 51.148438 C 49.546875 51.148438 49.601562 51.167969 49.617188 51.195312 C 49.632812 51.21875 49.710938 51.242188 49.785156 51.242188 C 49.867188 51.242188 49.9375 51.269531 49.949219 51.3125 C 49.96875 51.351562 50.015625 51.382812 50.058594 51.382812 C 50.101562 51.382812 50.160156 51.40625 50.1875 51.433594 C 50.222656 51.46875 50.277344 51.476562 50.316406 51.464844 C 50.414062 51.425781 50.414062 51.136719 50.320312 51.054688 C 50.273438 51.011719 50.25 50.90625 50.25 50.699219 C 50.25 50.53125 50.230469 50.398438 50.203125 50.398438 C 50.175781 50.398438 50.15625 50.265625 50.15625 50.097656 C 50.15625 49.929688 50.136719 49.777344 50.109375 49.765625 C 50.085938 49.75 50.0625 49.601562 50.0625 49.429688 C 50.0625 49.261719 50.042969 49.132812 50.015625 49.132812 C 49.988281 49.132812 49.96875 49 49.96875 48.832031 C 49.96875 48.625 49.945312 48.515625 49.898438 48.472656 C 49.851562 48.4375 49.828125 48.328125 49.828125 48.140625 C 49.828125 47.992188 49.808594 47.855469 49.78125 47.839844 C 49.757812 47.828125 49.734375 47.695312 49.734375 47.554688 C 49.734375 47.414062 49.714844 47.300781 49.6875 47.300781 C 49.664062 47.300781 49.640625 47.238281 49.640625 47.164062 C 49.640625 47.089844 49.609375 47.003906 49.570312 46.972656 C 49.53125 46.941406 49.5 46.855469 49.5 46.78125 C 49.5 46.703125 49.480469 46.644531 49.453125 46.644531 C 49.429688 46.644531 49.40625 46.582031 49.40625 46.507812 C 49.40625 46.429688 49.386719 46.351562 49.359375 46.339844 C 49.335938 46.324219 49.3125 46.25 49.3125 46.171875 C 49.3125 46.09375 49.292969 46.035156 49.265625 46.035156 C 49.242188 46.035156 49.21875 45.972656 49.21875 45.898438 C 49.21875 45.824219 49.1875 45.738281 49.148438 45.707031 C 49.109375 45.671875 49.078125 45.589844 49.078125 45.511719 C 49.078125 45.4375 49.058594 45.378906 49.03125 45.378906 C 49.007812 45.378906 48.984375 45.300781 48.984375 45.210938 C 48.984375 45.125 48.964844 45.046875 48.9375 45.046875 C 48.914062 45.046875 48.890625 44.988281 48.890625 44.914062 C 48.890625 44.835938 48.859375 44.753906 48.820312 44.71875 C 48.78125 44.6875 48.75 44.601562 48.75 44.527344 C 48.75 44.453125 48.730469 44.390625 48.703125 44.390625 C 48.679688 44.390625 48.65625 44.347656 48.65625 44.296875 C 48.65625 44.246094 48.636719 44.203125 48.609375 44.203125 C 48.585938 44.203125 48.5625 44.175781 48.5625 44.144531 C 48.5625 44.058594 48.429688 43.789062 48.371094 43.757812 C 48.347656 43.738281 48.328125 43.6875 48.328125 43.636719 C 48.328125 43.589844 48.308594 43.546875 48.28125 43.546875 C 48.257812 43.546875 48.234375 43.519531 48.234375 43.484375 C 48.234375 43.375 48.101562 43.152344 47.953125 43.007812 C 47.878906 42.933594 47.8125 42.847656 47.8125 42.820312 C 47.8125 42.792969 47.6875 42.636719 47.53125 42.476562 C 47.375 42.316406 47.25 42.164062 47.25 42.132812 C 47.25 42.09375 47.042969 41.859375 47 41.859375 C 46.992188 41.859375 46.953125 41.894531 46.917969 41.9375 Z M 46.917969 41.9375 "/>
<path style=" stroke:none;fill-rule:nonzero;fill:rgb(100%,92.156863%,23.137255%);fill-opacity:1;" d="M 26.109375 48.609375 C 26.109375 48.636719 26.132812 48.671875 26.15625 48.683594 C 26.183594 48.699219 26.203125 48.753906 26.203125 48.808594 C 26.203125 48.855469 26.226562 48.894531 26.25 48.894531 C 26.277344 48.894531 26.296875 48.9375 26.296875 48.984375 C 26.296875 49.039062 26.316406 49.089844 26.339844 49.109375 C 26.398438 49.140625 26.53125 49.40625 26.53125 49.492188 C 26.53125 49.523438 26.554688 49.554688 26.578125 49.554688 C 26.605469 49.554688 26.625 49.589844 26.628906 49.632812 C 26.628906 49.679688 26.671875 49.777344 26.71875 49.859375 C 26.867188 50.101562 26.953125 50.269531 26.953125 50.335938 C 26.953125 50.371094 26.976562 50.398438 27 50.398438 C 27.027344 50.398438 27.046875 50.441406 27.046875 50.488281 C 27.046875 50.539062 27.066406 50.589844 27.089844 50.609375 C 27.148438 50.640625 27.28125 50.910156 27.28125 50.992188 C 27.28125 51.027344 27.304688 51.054688 27.328125 51.054688 C 27.355469 51.054688 27.375 51.097656 27.375 51.148438 C 27.375 51.199219 27.398438 51.242188 27.421875 51.242188 C 27.449219 51.242188 27.46875 51.285156 27.46875 51.332031 C 27.46875 51.382812 27.488281 51.433594 27.511719 51.453125 C 27.5625 51.480469 27.703125 51.75 27.703125 51.816406 C 27.703125 51.839844 27.753906 51.910156 27.820312 51.976562 C 27.886719 52.039062 27.9375 52.121094 27.9375 52.15625 C 27.9375 52.195312 27.960938 52.226562 27.984375 52.226562 C 28.011719 52.226562 28.03125 52.269531 28.03125 52.316406 C 28.03125 52.367188 28.054688 52.425781 28.078125 52.4375 C 28.105469 52.453125 28.125 52.507812 28.125 52.5625 C 28.125 52.609375 28.148438 52.652344 28.171875 52.652344 C 28.199219 52.652344 28.21875 52.691406 28.21875 52.746094 C 28.21875 52.796875 28.25 52.851562 28.289062 52.867188 C 28.328125 52.886719 28.359375 52.921875 28.359375 52.960938 C 28.359375 52.992188 28.402344 53.097656 28.453125 53.191406 C 28.503906 53.285156 28.546875 53.378906 28.546875 53.40625 C 28.546875 53.433594 28.597656 53.5 28.664062 53.550781 C 28.730469 53.601562 28.78125 53.683594 28.78125 53.734375 C 28.78125 53.78125 28.804688 53.824219 28.828125 53.824219 C 28.855469 53.824219 28.875 53.851562 28.875 53.882812 C 28.875 53.96875 29.007812 54.238281 29.066406 54.269531 C 29.089844 54.289062 29.109375 54.339844 29.109375 54.390625 C 29.109375 54.4375 29.132812 54.480469 29.15625 54.480469 C 29.183594 54.480469 29.203125 54.507812 29.203125 54.542969 C 29.203125 54.628906 29.335938 54.882812 29.414062 54.949219 C 29.464844 54.992188 29.5 54.992188 29.554688 54.9375 C 29.59375 54.894531 29.625 54.832031 29.625 54.796875 C 29.625 54.757812 29.667969 54.691406 29.71875 54.644531 C 29.773438 54.59375 29.851562 54.484375 29.890625 54.402344 C 29.929688 54.316406 29.980469 54.246094 30.003906 54.246094 C 30.027344 54.246094 30.046875 54.214844 30.046875 54.171875 C 30.046875 54.128906 30.097656 54.042969 30.164062 53.984375 C 30.230469 53.921875 30.28125 53.847656 30.28125 53.808594 C 30.28125 53.773438 30.324219 53.707031 30.375 53.660156 C 30.425781 53.613281 30.46875 53.550781 30.46875 53.519531 C 30.46875 53.492188 30.519531 53.414062 30.585938 53.355469 C 30.652344 53.292969 30.703125 53.203125 30.703125 53.15625 C 30.703125 53.109375 30.726562 53.074219 30.75 53.074219 C 30.777344 53.074219 30.796875 53.03125 30.796875 52.984375 C 30.796875 52.933594 30.847656 52.851562 30.914062 52.800781 C 30.980469 52.75 31.03125 52.679688 31.03125 52.640625 C 31.03125 52.605469 31.074219 52.53125 31.125 52.484375 C 31.175781 52.4375 31.21875 52.378906 31.21875 52.34375 C 31.21875 52.316406 31.269531 52.242188 31.335938 52.179688 C 31.402344 52.121094 31.453125 52.035156 31.453125 51.992188 C 31.453125 51.957031 31.496094 51.890625 31.546875 51.851562 C 31.597656 51.816406 31.640625 51.75 31.640625 51.710938 C 31.640625 51.667969 31.691406 51.585938 31.757812 51.523438 C 31.824219 51.464844 31.875 51.386719 31.875 51.359375 C 31.875 51.332031 31.925781 51.257812 31.992188 51.195312 C 32.054688 51.140625 32.09375 51.074219 32.085938 51.054688 C 32.078125 51.035156 32.136719 50.945312 32.226562 50.851562 C 32.316406 50.753906 32.390625 50.652344 32.390625 50.613281 C 32.390625 50.582031 32.464844 50.488281 32.554688 50.414062 C 32.644531 50.332031 32.71875 50.238281 32.71875 50.199219 C 32.71875 50.164062 32.792969 50.066406 32.882812 49.976562 C 32.972656 49.886719 33.046875 49.792969 33.046875 49.765625 C 33.046875 49.738281 33.121094 49.640625 33.210938 49.554688 C 33.300781 49.464844 33.375 49.355469 33.375 49.308594 C 33.375 49.261719 33.398438 49.226562 33.421875 49.226562 C 33.449219 49.226562 33.46875 49.203125 33.46875 49.179688 C 33.46875 49.148438 33.210938 49.132812 32.792969 49.132812 C 32.253906 49.132812 32.109375 49.117188 32.0625 49.0625 C 32.015625 49.003906 31.851562 48.992188 31.144531 48.992188 C 30.625 48.992188 30.277344 48.972656 30.257812 48.945312 C 30.242188 48.914062 30.050781 48.894531 29.835938 48.894531 C 29.621094 48.894531 29.429688 48.871094 29.414062 48.847656 C 29.398438 48.820312 29.207031 48.800781 28.992188 48.800781 C 28.777344 48.800781 28.585938 48.777344 28.570312 48.753906 C 28.554688 48.726562 28.363281 48.707031 28.152344 48.707031 C 27.863281 48.707031 27.746094 48.691406 27.703125 48.636719 C 27.65625 48.582031 27.5 48.566406 26.878906 48.566406 C 26.429688 48.566406 26.109375 48.585938 26.109375 48.609375 Z M 26.109375 48.609375 "/>
</g>
</svg>
